<svg width="3143" height="743" viewBox="0 0 3143 743" fill="none" xmlns="http://www.w3.org/2000/svg">
<path d="M459.824 732.456L385.103 505.849H144.516L70.6149 732.456H0L237.301 17.0583H296.011L532.082 732.456H459.824ZM363.343 431.286L293.548 210.526C284.516 182.585 275.211 148.31 265.629 107.702C259.61 138.891 250.988 173.166 239.767 210.526L169.149 431.286H363.343ZM809.619 188.598C829.599 188.598 847.526 190.548 863.4 194.445L853.959 269.494C835.348 264.62 818.925 262.183 804.694 262.183C768.29 262.183 737.088 279.728 711.086 314.814C685.356 349.903 672.492 393.601 672.492 445.907V732.456H604.34V198.341H660.587L668.386 297.273H671.672C688.366 262.508 708.486 235.706 732.022 216.864C755.562 198.017 781.427 188.598 809.619 188.598ZM1521.11 732.456V384.989C1521.11 342.431 1513.45 310.593 1498.12 289.476C1482.79 268.03 1458.98 257.309 1426.69 257.309C1384.26 257.309 1352.92 271.769 1332.67 300.683C1312.41 329.597 1302.29 374.106 1302.29 434.209V732.456H1234.14V384.989C1234.14 342.431 1226.47 310.593 1211.14 289.476C1195.82 268.03 1171.87 257.309 1139.29 257.309C1096.6 257.309 1065.26 272.58 1045.28 303.12C1025.57 333.332 1015.72 383.043 1015.72 452.241V732.456H947.566V198.341H1002.99L1014.08 271.444H1017.36C1030.22 245.454 1048.29 225.147 1071.55 210.526C1095.09 195.909 1121.37 188.598 1150.38 188.598C1220.72 188.598 1266.7 218.81 1288.33 279.242H1291.61C1305.02 251.3 1324.46 229.206 1349.91 212.963C1375.37 196.72 1404.38 188.598 1436.95 188.598C1487.86 188.598 1525.9 204.192 1551.08 235.381C1576.54 266.246 1589.27 315.791 1589.27 384.016V732.456H1521.11ZM2006.79 732.456L1993.27 656.433H1989.98C1967.52 689.897 1945.1 712.636 1922.64 724.658C1900.47 736.356 1872.68 742.203 1839.3 742.203C1794.68 742.203 1759.65 728.555 1734.19 701.267C1709.01 673.978 1696.42 635.154 1696.42 584.794C1696.42 476.934 1769.09 420.403 1914.44 415.205L1990.78 412.281V379.142C1990.78 337.232 1983.11 306.368 1967.8 286.548C1952.74 266.408 1928.53 256.336 1895.14 256.336C1857.62 256.336 1815.21 269.981 1767.86 297.273L1746.92 235.381C1769.09 221.084 1793.31 209.877 1819.59 201.756C1846.14 193.634 1872.68 189.571 1899.24 189.571C1952.88 189.571 1992.57 203.706 2018.29 231.967C2044.32 260.233 2057.31 305.557 2057.31 367.935V732.456H2006.79ZM1852.84 675.438C1895.28 675.438 1928.53 661.631 1952.6 634.015C1976.98 606.402 1989.14 567.74 1989.14 518.033V469.786L1921 473.196C1866.8 475.47 1827.66 485.542 1803.58 503.412C1779.77 520.957 1767.86 548.407 1767.86 585.771C1767.86 615.01 1775.25 637.262 1790.03 652.533C1805.08 667.803 1826.02 675.438 1852.84 675.438ZM2403.42 188.598C2423.39 188.598 2441.32 190.548 2457.19 194.445L2447.73 269.494C2429.13 264.62 2412.7 262.183 2398.48 262.183C2362.08 262.183 2330.86 279.728 2304.86 314.814C2279.15 349.903 2266.29 393.601 2266.29 445.907V732.456H2198.12V198.341H2254.38L2262.16 297.273H2265.45C2282.16 262.508 2302.27 235.706 2325.82 216.864C2349.36 198.017 2375.21 188.598 2403.42 188.598ZM2609.49 732.456H2541.35V198.341H2609.49V732.456ZM2535.6 53.6077C2535.6 35.0898 2539.42 21.6036 2547.09 13.1576C2554.76 4.38728 2564.33 0 2575.82 0C2586.79 0 2596.21 4.38728 2604.16 13.1576C2612.11 21.9321 2616.07 35.4141 2616.07 53.6077C2616.07 71.8013 2612.11 85.4455 2604.16 94.5443C2596.21 103.315 2586.79 107.702 2575.82 107.702C2564.33 107.702 2554.76 103.315 2547.09 94.5443C2539.42 85.4455 2535.6 71.8013 2535.6 53.6077ZM3142.39 464.912C3142.39 551.983 3123.93 620.046 3086.97 669.104C3050.04 717.834 2999 742.203 2933.83 742.203C2893.61 742.203 2857.88 730.992 2826.7 708.577C2795.48 686.159 2771.38 653.996 2754.42 612.087C2737.47 570.177 2728.99 521.119 2728.99 464.912C2728.99 377.845 2747.31 310.106 2783.99 261.697C2820.67 212.963 2871.58 188.598 2936.71 188.598C2999.66 188.598 3049.62 213.449 3086.58 263.156C3123.79 312.868 3142.39 380.115 3142.39 464.912ZM2799.58 464.912C2799.58 533.137 2811.07 585.119 2834.09 620.857C2857.07 656.596 2890.88 674.465 2935.48 674.465C2980.08 674.465 3013.89 656.758 3036.9 621.344C3060.17 585.609 3071.8 533.461 3071.8 464.912C3071.8 397.011 3060.17 345.516 3036.9 310.431C3013.89 275.017 2979.83 257.309 2934.67 257.309C2890.04 257.309 2856.37 274.692 2833.67 309.453C2810.93 344.219 2799.58 396.038 2799.58 464.912Z" fill="url(#paint0_linear)"/>
<defs>
<linearGradient id="paint0_linear" x1="-87.5855" y1="712.511" x2="4869.74" y2="694.876" gradientUnits="userSpaceOnUse">
<stop stop-color="#E05D96"/>
<stop offset="1" stop-color="#58A1EA"/>
</linearGradient>
</defs>
</svg>
