<?xml version="1.0"?>
<svg xmlns="http://www.w3.org/2000/svg" id="Capa_1" enable-background="new 0 0 512 512" height="512px" viewBox="0 0 512 512" width="512px"><g><g><path d="m322.266 445.733c13.271 0 24.068-10.796 24.068-24.067v-49.699c0-1.989-.79-3.897-2.197-5.303l-33.134-33.133c-1.406-1.407-3.314-2.197-5.303-2.197h-99.4c-1.989 0-3.897.79-5.303 2.197l-33.134 33.133c-1.407 1.406-2.197 3.314-2.197 5.303v49.699c0 13.271 10.796 24.067 24.067 24.067zm-141.599-24.067v-46.593l28.74-28.74h93.187l28.74 28.74v46.593c0 5-4.068 9.067-9.068 9.067h-132.532c-5 0-9.067-4.067-9.067-9.067z" data-original="#000000" class="active-path" data-old_color="#000000" fill="#3A3A3A"/><path d="m462.3 421.667c0-.001 0-.001 0 0v-182.233c0-65.648-45.412-120.88-106.469-135.957 14.309-10.407 23.636-27.268 23.636-46.276 0-31.541-25.66-57.2-57.2-57.2h-132.534c-31.54 0-57.2 25.66-57.2 57.2 0 18.989 9.309 35.837 23.595 46.246-17.706 4.349-34.417 12.153-49.39 23.188-3.334 2.457-4.045 7.153-1.588 10.487 1.471 1.995 3.742 3.051 6.043 3.051 1.545 0 3.105-.476 4.444-1.463 21.58-15.904 47.202-24.31 74.096-24.31h9.066v35.903c-9.608 3.16-16.566 12.212-16.566 22.864 0 13.27 10.796 24.067 24.066 24.067s24.067-10.796 24.067-24.067c0-10.652-6.959-19.704-16.567-22.864v-35.903h84.4v35.903c-9.608 3.16-16.567 12.212-16.567 22.864 0 13.27 10.796 24.067 24.067 24.067s24.066-10.796 24.066-24.067c0-10.652-6.958-19.704-16.566-22.864v-35.903h9.066c68.943 0 125.033 56.09 125.033 125.033v174.733h-25.634c-4.142 0-7.5 3.358-7.5 7.5s3.358 7.5 7.5 7.5h25.636v9.066c0 4.998-4.065 9.065-9.062 9.068-.001 0-.003 0-.005 0h-49.7c-.001 0-.003 0-.005 0-4.994-.003-9.057-4.064-9.062-9.058v-248.509c0-4.142-3.358-7.5-7.5-7.5-4.142 0-7.5 3.358-7.5 7.5v248.499.019 16.549c0 4.998-4.065 9.064-9.062 9.067-.002 0-.003 0-.005 0h-198.799c-.001 0-.003 0-.005 0-4.998-.003-9.062-4.069-9.062-9.067v-16.548c0-.006.001-.013.001-.019v-248.5c0-4.142-3.358-7.5-7.5-7.5-4.142 0-7.5 3.358-7.5 7.5v248.509c-.005 4.994-4.067 9.055-9.062 9.058-.002 0-.003 0-.005 0h-49.7c-.002 0-.003 0-.005 0-4.998-.003-9.062-4.069-9.062-9.068v-9.066h25.634c4.142 0 7.5-3.358 7.5-7.5s-3.358-7.5-7.5-7.5h-25.634v-174.733c0-29.889 10.714-58.816 30.167-81.452 2.7-3.142 2.342-7.877-.799-10.577-3.142-2.699-7.875-2.342-10.577.799-21.79 25.356-33.791 57.755-33.791 91.23v182.233.001.001 16.566c0 10.652 6.959 19.705 16.567 22.865v26.836c0 4.142 3.358 7.5 7.5 7.5h49.7c4.142 0 7.5-3.358 7.5-7.5v-26.836c.749-.246 1.482-.529 2.197-.845 1.909 8.204 8.02 14.808 15.936 17.411v26.835c0 4.142 3.358 7.5 7.5 7.5h198.8c4.142 0 7.5-3.358 7.5-7.5v-26.836c7.916-2.603 14.028-9.207 15.936-17.411.715.316 1.448.598 2.197.845v26.836c0 4.142 3.358 7.5 7.5 7.5h49.7c4.142 0 7.5-3.358 7.5-7.5v-26.836c9.608-3.16 16.567-12.213 16.567-22.865zm-256-239.434c-4.999 0-9.066-4.067-9.066-9.067 0-4.999 4.067-9.066 9.066-9.066s9.067 4.067 9.067 9.066c0 5-4.068 9.067-9.067 9.067zm99.4 0c-4.999 0-9.067-4.067-9.067-9.067 0-4.999 4.067-9.066 9.067-9.066 4.999 0 9.066 4.067 9.066 9.066.001 5-4.067 9.067-9.066 9.067zm-115.967-167.233h132.533c20.709 0 37.969 14.999 41.519 34.7h-58.085c-21.265 0-39.843 11.673-49.7 28.939-9.857-17.266-28.435-28.939-49.7-28.939h-58.086c3.551-19.701 20.811-34.7 41.519-34.7zm16.567 67.834c-4.142 0-7.5 3.358-7.5 7.5v9.066h-9.066c-20.709 0-37.969-14.998-41.519-34.7h58.085c20.709 0 37.969 14.998 41.519 34.7h-34.019v-9.066c0-4.143-3.358-7.5-7.5-7.5zm99.4 0c-4.142 0-7.5 3.358-7.5 7.5v9.066h-34.019c3.551-19.702 20.811-34.7 41.519-34.7h58.086c-3.551 19.702-20.811 34.7-41.519 34.7h-9.067v-9.066c0-4.143-3.358-7.5-7.5-7.5zm-224.433 397.6v-18.133h34.7v18.133zm82.833 16.566v-18.133h183.8v18.133zm231.933-16.566v-18.133h34.7v18.133z" data-original="#000000" class="active-path" data-old_color="#000000" fill="#3A3A3A"/></g></g> </svg>
