<?xml version="1.0"?>
<svg xmlns="http://www.w3.org/2000/svg" viewBox="0 0 512 512" width="512px" height="512px"><g><g id="outline"><path d="M462.812,179.391A55.341,55.341,0,0,0,464,168a56.076,56.076,0,0,0-48.766-55.531A47.209,47.209,0,0,0,416,104a48,48,0,0,0-96,0,47.209,47.209,0,0,0,.766,8.469A56.076,56.076,0,0,0,272,168a55.341,55.341,0,0,0,1.188,11.391A71.979,71.979,0,1,0,360,293.641V480H280V464h8a8,8,0,0,0,8-8V376a8,8,0,0,0-8-8h-8v-8a8,8,0,0,0-16,0v8H192v-8a8,8,0,0,0-16,0v8h-8a8,8,0,0,0-8,8v40h-8a24,24,0,0,0,0,48h8v16H96V391.528A72.084,72.084,0,0,0,160,320V192a72,72,0,0,0-144,0V320a72.084,72.084,0,0,0,64,71.528V480H24a8,8,0,0,0,0,16H488a8,8,0,0,0,0-16H376V293.641a71.979,71.979,0,1,0,86.812-114.25ZM32,320V192a56,56,0,0,1,112,0V320a56.041,56.041,0,0,1-48,55.361V307.312l29.656-29.656a8,8,0,0,0-11.312-11.312L96,284.688V168a8,8,0,0,0-16,0v68.688L61.656,218.344a8,8,0,0,0-11.312,11.312L80,259.312V375.361A56.041,56.041,0,0,1,32,320ZM280,448h-8a8,8,0,0,1,0-16h8ZM176,384H280v32H176Zm-32,56a8.008,8.008,0,0,1,8-8h97.371c-.24.675-.371,1.4-.55,2.1-.119.468-.275.917-.366,1.4a22.52,22.52,0,0,0,0,9.008c.091.478.247.928.366,1.4.179.7.31,1.424.55,2.1H152A8.008,8.008,0,0,1,144,440Zm32,40V464h88v16ZM424,296a56.068,56.068,0,0,1-48-27.18V251.312l37.656-37.656a8,8,0,0,0-11.312-11.312L376,228.688V136a8,8,0,0,0-16,0v55.352l-27-21.6A8,8,0,0,0,323,182.25l37,29.594V268.82a55.987,55.987,0,1,1-73.8-78.492,8,8,0,0,0,3.891-9.633A39.933,39.933,0,0,1,328,128c.816,0,1.621.062,2.93.156a8.176,8.176,0,0,0,7.1-3.4,8,8,0,0,0,.758-7.836A31.663,31.663,0,0,1,336,104a32,32,0,0,1,64,0,31.663,31.663,0,0,1-2.785,12.922,8.045,8.045,0,0,0,1.008,7.828,8.3,8.3,0,0,0,7.355,3.367c.8-.055,1.606-.117,2.422-.117A39.933,39.933,0,0,1,445.906,180.7a8,8,0,0,0,3.891,9.633A55.98,55.98,0,0,1,424,296Z" data-original="#000000" class="active-path" data-old_color="#000000" fill="#3A3A3A"/><path d="M198.184,80H184a8,8,0,0,0-8,8v14.188A33.856,33.856,0,0,0,209.816,136H224a8,8,0,0,0,8-8V113.812A33.856,33.856,0,0,0,198.184,80ZM216,120h-6.184A17.835,17.835,0,0,1,192,102.188V96h6.184A17.835,17.835,0,0,1,216,113.812Z" data-original="#000000" class="active-path" data-old_color="#000000" fill="#3A3A3A"/><path d="M233.816,344H248a8,8,0,0,0,8-8V321.812A33.856,33.856,0,0,0,222.184,288H208a8,8,0,0,0-8,8v14.188A33.856,33.856,0,0,0,233.816,344ZM216,304h6.184A17.835,17.835,0,0,1,240,321.812V328h-6.184A17.835,17.835,0,0,1,216,310.188Z" data-original="#000000" class="active-path" data-old_color="#000000" fill="#3A3A3A"/><path d="M462.184,376H448a8,8,0,0,0-8,8v14.188A33.856,33.856,0,0,0,473.816,432H488a8,8,0,0,0,8-8V409.812A33.856,33.856,0,0,0,462.184,376ZM480,416h-6.184A17.835,17.835,0,0,1,456,398.188V392h6.184A17.835,17.835,0,0,1,480,409.812Z" data-original="#000000" class="active-path" data-old_color="#000000" fill="#3A3A3A"/><path d="M81.172,103.477a32.627,32.627,0,0,0,3.266-.157l14.121-1.343a8,8,0,0,0,7.207-8.719l-1.34-14.117A33.806,33.806,0,0,0,67.562,48.68L53.441,50.023a8,8,0,0,0-7.207,8.719l1.34,14.117a33.815,33.815,0,0,0,33.6,30.618ZM69.078,64.6A17.823,17.823,0,0,1,88.5,80.656l.586,6.156-6.16.586A17.823,17.823,0,0,1,63.5,71.344l-.586-6.156Z" data-original="#000000" class="active-path" data-old_color="#000000" fill="#3A3A3A"/><path d="M152,24a8,8,0,0,0-8,8v1.375a62.381,62.381,0,0,0,10.77,35.109,8,8,0,1,0,13.25-8.968A46.457,46.457,0,0,1,160,33.375V32A8,8,0,0,0,152,24Z" data-original="#000000" class="active-path" data-old_color="#000000" fill="#3A3A3A"/><path d="M175.984,245a57.362,57.362,0,0,0,9.313,31.367,8,8,0,0,0,13.406-8.734A41.394,41.394,0,0,1,191.984,245v-1.25a8,8,0,0,0-16,0Z" data-original="#000000" class="active-path" data-old_color="#000000" fill="#3A3A3A"/><path d="M22.527,13.227a8,8,0,0,0-8,8v1.242a57.38,57.38,0,0,0,9.309,31.375,8,8,0,0,0,13.406-8.735,41.429,41.429,0,0,1-6.715-22.64V21.227A8,8,0,0,0,22.527,13.227Z" data-original="#000000" class="active-path" data-old_color="#000000" fill="#3A3A3A"/><path d="M415.984,331.75a8,8,0,0,0-8,8V341a57.362,57.362,0,0,0,9.313,31.367,8,8,0,0,0,13.406-8.734A41.394,41.394,0,0,1,423.984,341v-1.25A8,8,0,0,0,415.984,331.75Z" data-original="#000000" class="active-path" data-old_color="#000000" fill="#3A3A3A"/><rect x="280" y="48" width="16" height="16" data-original="#000000" class="active-path" data-old_color="#000000" fill="#3A3A3A"/><rect x="192" y="168" width="16" height="16" data-original="#000000" class="active-path" data-old_color="#000000" fill="#3A3A3A"/><rect x="312" y="344" width="16" height="16" data-original="#000000" class="active-path" data-old_color="#000000" fill="#3A3A3A"/><rect x="416" y="440" width="16" height="16" data-original="#000000" class="active-path" data-old_color="#000000" fill="#3A3A3A"/></g></g> </svg>
