<?xml version="1.0"?>
<svg xmlns="http://www.w3.org/2000/svg" id="Capa_1" enable-background="new 0 0 512 512" height="512px" viewBox="0 0 512 512" width="512px"><g><g><path d="m487.134 378.366-112.806-92.107c-3.207-2.619-7.933-2.142-10.552 1.066s-2.142 7.933 1.066 10.553l112.806 92.107c17.377 14.185 23.739 37.006 16.207 58.139-7.532 21.127-26.892 34.777-49.323 34.777h-377.064c-22.431 0-41.791-13.651-49.323-34.777-7.532-21.133-1.17-43.954 16.207-58.14l188.53-153.942c9.281-7.571 21.042-11.741 33.118-11.741s23.837 4.17 33.115 11.739l52.668 43.008c3.21 2.621 7.932 2.142 10.553-1.065 2.619-3.208 2.142-7.933-1.065-10.552l-52.671-43.011c-10.013-8.169-22.262-13.248-35.1-14.684v-11.812c0-7.017 4.883-13.046 11.875-14.662 39.358-9.1 67.236-45.07 66.288-85.528-.516-21.996-9.443-42.756-25.14-58.456-15.696-15.7-36.454-24.633-58.449-25.154-23.278-.544-45.289 8.098-61.937 24.357-16.653 16.263-25.824 38.035-25.824 61.305 0 4.142 3.357 7.5 7.5 7.5s7.5-3.358 7.5-7.5c0-19.196 7.566-37.157 21.305-50.574 13.733-13.411 31.854-20.541 51.101-20.092 18.123.429 35.24 7.803 48.197 20.763 12.956 12.961 20.326 30.079 20.751 48.203.782 33.381-22.21 63.057-54.672 70.563-13.833 3.198-23.495 15.237-23.495 29.276v11.812c-12.838 1.436-25.087 6.515-35.102 14.686l-188.532 153.942c-22.354 18.249-30.539 47.608-20.85 74.795 9.689 27.179 34.595 44.74 63.451 44.74h377.064c28.856 0 53.762-17.561 63.451-44.74 9.691-27.187 1.506-56.546-20.848-74.794z" data-original="#000000" class="active-path" data-old_color="#000000" fill="#3A3A3A"/><path d="m444.532 436.093h-320.296c-4.142 0-7.5 3.358-7.5 7.5s3.357 7.5 7.5 7.5h320.296c10.722 0 17.033-7.065 19.355-13.653 3.043-8.544.67-17.071-6.352-22.815l-188.537-153.94c-7.522-6.153-18.453-6.156-25.991-.004l-188.547 153.947c-7.016 5.74-9.389 14.267-6.354 22.788 2.33 6.612 8.64 13.676 19.362 13.676h26.769c4.142 0 7.5-3.358 7.5-7.5s-3.357-7.5-7.5-7.5h-26.769c-1.073 0-3.926 0-5.224-3.686-1.314-3.691.885-5.49 1.708-6.164l184.548-150.683v19.508c0 4.142 3.357 7.5 7.5 7.5 4.142 0 7.5-3.358 7.5-7.5v-19.508l184.543 150.679c.829.678 3.028 2.477 1.706 6.192-1.291 3.663-4.144 3.663-5.217 3.663z" data-original="#000000" class="active-path" data-old_color="#000000" fill="#3A3A3A"/></g></g> </svg>
