<?xml version="1.0"?>
<svg xmlns="http://www.w3.org/2000/svg" id="Outline" height="512px" viewBox="0 0 512 512" width="512px"><g><path d="m471.353 204.849-48-112a7.988 7.988 0 0 0 -4.377-4.279l-77.5-31-22.616-37.686a8.015 8.015 0 0 0 -6.86-3.873v-.011h-112v.011a8 8 0 0 0 -6.86 3.873l-22.614 37.689-77.5 31a7.988 7.988 0 0 0 -4.377 4.279l-48 112a7.988 7.988 0 0 0 -.63 3.666l16 248a8 8 0 0 0 7.981 7.482h41.822l-1.8 23.387a8 8 0 0 0 7.978 8.613h120a8 8 0 0 0 7.155-4.422l16.845-33.689 16.845 33.689a8 8 0 0 0 7.155 4.422h120a8 8 0 0 0 7.977-8.613l-1.799-23.387h41.822a8 8 0 0 0 7.983-7.485l16-248a7.988 7.988 0 0 0 -.63-3.666zm-144.569-140.66-41.384 75.864-19.1-14.323 46.068-85.554zm-70.784 46.936-25.375-47.125h50.75zm33.991-63.125h-67.982l-8.615-16h85.212zm-90.367-7.824 46.068 85.554-19.1 14.323-41.38-75.864zm-92.571 407.824h-35.553l-1.032-16h25.532v-16h-26.564l-13.33-206.606 36.63-85.47 27.211 156.461zm120 32h-106.414l15.338-199.387a8.042 8.042 0 0 0 -.095-1.984l-30.889-177.609 67.385-26.955 44.6 81.766a8 8 0 0 0 11.822 2.569l19.2-14.4v294.111zm57.888 0-20.941-41.889v-294.111l19.2 14.4a8 8 0 0 0 11.823-2.569l44.6-81.766 67.385 26.955-30.89 177.609a8.042 8.042 0 0 0 -.095 1.984l15.338 199.387zm157.62-64h-26.561v16h25.532l-1.032 16h-35.553l-12.894-167.615 27.211-156.461 36.63 85.47z" data-original="#000000" class="active-path" data-old_color="#000000" fill="#3A3A3A"/><path d="m216 184h16v16h-16z" data-original="#000000" class="active-path" data-old_color="#000000" fill="#3A3A3A"/><path d="m216 256h16v16h-16z" data-original="#000000" class="active-path" data-old_color="#000000" fill="#3A3A3A"/><path d="m216 328h16v16h-16z" data-original="#000000" class="active-path" data-old_color="#000000" fill="#3A3A3A"/><path d="m216 400h16v16h-16z" data-original="#000000" class="active-path" data-old_color="#000000" fill="#3A3A3A"/><path d="m304 184h48v16h-48z" data-original="#000000" class="active-path" data-old_color="#000000" fill="#3A3A3A"/></g> </svg>
