<svg width="432" height="480" viewBox="0 0 432 480" fill="none" xmlns="http://www.w3.org/2000/svg">
<path d="M431.351 188.849L383.351 76.849C382.938 75.883 382.339 75.0079 381.588 74.2736C380.837 73.5394 379.949 72.9604 378.974 72.57L301.474 41.57L278.858 3.884C278.145 2.70243 277.138 1.72506 275.936 1.04653C274.735 0.367997 273.378 0.0113067 271.998 0.0109997V0H159.998V0.0109997C158.617 0.00984575 157.26 0.365914 156.058 1.04458C154.856 1.72325 153.85 2.70143 153.138 3.884L130.524 41.573L53.0238 72.573C52.0487 72.9634 51.1602 73.5424 50.4091 74.2766C49.6581 75.0109 49.0592 75.886 48.6468 76.852L0.646765 188.852C0.151205 190.007 -0.0646442 191.263 0.0167678 192.518L16.0168 440.518C16.1483 442.545 17.0463 444.447 18.5285 445.836C20.0107 447.226 21.9661 447.999 23.9978 448H65.8198L64.0198 471.387C63.9353 472.486 64.0789 473.591 64.4415 474.632C64.8042 475.673 65.3781 476.628 66.1272 477.436C66.8763 478.245 67.7844 478.89 68.7947 479.331C69.8049 479.773 70.8954 480 71.9978 480H191.998C193.483 480 194.94 479.586 196.203 478.805C197.467 478.024 198.488 476.907 199.153 475.578L215.998 441.889L232.843 475.578C233.507 476.907 234.528 478.024 235.792 478.805C237.056 479.586 238.512 480 239.998 480H359.998C361.1 480 362.19 479.772 363.201 479.331C364.211 478.89 365.119 478.245 365.868 477.436C366.617 476.627 367.19 475.673 367.553 474.632C367.916 473.591 368.059 472.486 367.975 471.387L366.176 448H407.998C410.03 448 411.987 447.226 413.469 445.836C414.952 444.446 415.85 442.543 415.981 440.515L431.981 192.515C432.062 191.26 431.846 190.004 431.351 188.849V188.849ZM286.782 48.189L245.398 124.053L226.298 109.73L272.366 24.176L286.782 48.189ZM215.998 95.125L190.623 48H241.373L215.998 95.125ZM249.989 32H182.007L173.392 16H258.604L249.989 32ZM159.622 24.176L205.69 109.73L186.59 124.053L145.21 48.189L159.622 24.176ZM67.0508 432H31.4978L30.4658 416H55.9978V400H29.4338L16.1038 193.394L52.7338 107.924L79.9448 264.385L67.0508 432ZM187.051 464H80.6368L95.9748 264.613C96.0252 263.95 95.9933 263.284 95.8798 262.629L64.9908 85.02L132.376 58.065L176.976 139.831C177.525 140.838 178.285 141.716 179.204 142.403C180.123 143.091 181.178 143.573 182.3 143.817C183.421 144.061 184.582 144.06 185.703 143.816C186.824 143.571 187.88 143.088 188.798 142.4L207.998 128V422.111L187.051 464ZM244.939 464L223.998 422.111V128L243.198 142.4C244.116 143.089 245.171 143.572 246.293 143.816C247.414 144.061 248.575 144.061 249.696 143.818C250.818 143.574 251.874 143.092 252.793 142.404C253.711 141.716 254.471 140.839 255.021 139.831L299.621 58.065L367.006 85.02L336.116 262.629C336.002 263.284 335.97 263.95 336.021 264.613L351.359 464H244.939ZM402.559 400H375.998V416H401.53L400.498 432H364.945L352.051 264.385L379.262 107.924L415.892 193.394L402.559 400Z" fill="url(#paint0_linear)"/>
<path d="M175.998 168H191.998V184H175.998V168Z" fill="url(#paint1_linear)"/>
<path d="M175.998 240H191.998V256H175.998V240Z" fill="url(#paint2_linear)"/>
<path d="M175.998 312H191.998V328H175.998V312Z" fill="url(#paint3_linear)"/>
<path d="M175.998 384H191.998V400H175.998V384Z" fill="url(#paint4_linear)"/>
<path d="M263.998 168H311.998V184H263.998V168Z" fill="url(#paint5_linear)"/>
<defs>
<linearGradient id="paint0_linear" x1="215.999" y1="0" x2="215.999" y2="480" gradientUnits="userSpaceOnUse">
<stop stop-color="#3901F8"/>
<stop offset="1" stop-color="#E05D96"/>
</linearGradient>
<linearGradient id="paint1_linear" x1="183.998" y1="168" x2="183.998" y2="184" gradientUnits="userSpaceOnUse">
<stop stop-color="#3901F8"/>
<stop offset="1" stop-color="#E05D96"/>
</linearGradient>
<linearGradient id="paint2_linear" x1="183.998" y1="240" x2="183.998" y2="256" gradientUnits="userSpaceOnUse">
<stop stop-color="#3901F8"/>
<stop offset="1" stop-color="#E05D96"/>
</linearGradient>
<linearGradient id="paint3_linear" x1="183.998" y1="312" x2="183.998" y2="328" gradientUnits="userSpaceOnUse">
<stop stop-color="#3901F8"/>
<stop offset="1" stop-color="#E05D96"/>
</linearGradient>
<linearGradient id="paint4_linear" x1="183.998" y1="384" x2="183.998" y2="400" gradientUnits="userSpaceOnUse">
<stop stop-color="#3901F8"/>
<stop offset="1" stop-color="#E05D96"/>
</linearGradient>
<linearGradient id="paint5_linear" x1="287.998" y1="168" x2="287.998" y2="184" gradientUnits="userSpaceOnUse">
<stop stop-color="#3901F8"/>
<stop offset="1" stop-color="#E05D96"/>
</linearGradient>
</defs>
</svg>
