<?xml version="1.0"?>
<svg xmlns="http://www.w3.org/2000/svg" height="512px" viewBox="-116 0 512 512" width="512px"><g><path d="m140 120c-5.519531 0-10 4.480469-10 10s4.480469 10 10 10 10-4.480469 10-10-4.480469-10-10-10zm0 0" data-original="#000000" class="active-path" data-old_color="#000000" fill="#3A3A3A"/><path d="m150 502c0 5.523438 4.476562 10 10 10h110c5.523438 0 10-4.476562 10-10v-367.28125c0-29.980469-6.921875-59.996094-20-87v-37.71875c0-5.523438-4.476562-10-10-10h-220c-5.523438 0-10 4.476562-10 10v37.722656c-13.078125 27-20 57.019532-20 87v367.277344c0 5.523438 4.476562 10 10 10h110c5.523438 0 10-4.476562 10-10v-269.640625l10-20 10 20zm20-10v-20h90v20zm-20-452v-20h30v20zm-113.6875 19.988281h23.113281c-2.933593 25.871094-17.15625 48.851563-39.019531 63.007813 1.4375-21.714844 6.855469-43.207032 15.90625-63.007813zm93.6875-19.988281h-30v-20h30zm113.6875 20c9.054688 19.800781 14.46875 41.28125 15.910156 62.996094-21.863281-14.152344-36.089844-37.125-39.023437-62.996094zm-3.6875-20h-40v-20h40zm-200-20h40v20h-40zm-20 472v-20h90v20zm128.945312-306.472656c-1.695312-3.386719-5.15625-5.527344-8.945312-5.527344s-7.25 2.140625-8.945312 5.527344l-20 40c-.691407 1.390625-1.054688 2.921875-1.054688 4.472656v222h-90v-305.824219l.800781-.402343c17.800781-8.894532 32.738281-22.546876 43.203125-39.476563 8.703125-14.082031 13.980469-29.917969 15.515625-46.296875h50.480469v30c0 5.523438 4.476562 10 10 10s10-4.476562 10-10v-30h50.480469c1.535156 16.378906 6.8125 32.21875 15.515625 46.296875 10.464844 16.929687 25.402344 30.582031 43.195312 39.472656l.808594.40625v305.824219h-90v-222c0-1.550781-.359375-3.082031-1.054688-4.472656zm0 0" data-original="#000000" class="active-path" data-old_color="#000000" fill="#3A3A3A"/></g> </svg>
