<svg width="280" height="512" viewBox="0 0 280 512" fill="none" xmlns="http://www.w3.org/2000/svg">
<path d="M140 120C134.48 120 130 124.48 130 130C130 135.52 134.48 140 140 140C145.52 140 150 135.52 150 130C150 124.48 145.52 120 140 120Z" fill="url(#paint0_linear)"/>
<path d="M150 502C150 507.523 154.477 512 160 512H270C275.523 512 280 507.523 280 502V134.719C280 104.738 273.078 74.7227 260 47.7188V10C260 4.47656 255.523 0 250 0H30C24.4766 0 20 4.47656 20 10V47.7227C6.92188 74.7227 0 104.742 0 134.723V502C0 507.523 4.47656 512 10 512H120C125.523 512 130 507.523 130 502V232.359L140 212.359L150 232.359V502ZM170 492V472H260V492H170ZM150 40V20H180V40H150ZM36.3125 59.9883H59.4258C56.4922 85.8594 42.2695 108.84 20.4062 122.996C21.8438 101.281 27.2617 79.7891 36.3125 59.9883ZM130 40H100V20H130V40ZM243.688 60C252.742 79.8008 258.156 101.281 259.598 122.996C237.734 108.844 223.508 85.8711 220.574 60H243.688ZM240 40H200V20H240V40ZM40 20H80V40H40V20ZM20 492V472H110V492H20ZM148.945 185.527C147.25 182.141 143.789 180 140 180C136.211 180 132.75 182.141 131.055 185.527L111.055 225.527C110.363 226.918 110 228.449 110 230V452H20V146.176L20.8008 145.773C38.6016 136.879 53.5391 123.227 64.0039 106.297C72.707 92.2148 77.9844 76.3789 79.5195 60H130V90C130 95.5234 134.477 100 140 100C145.523 100 150 95.5234 150 90V60H200.48C202.016 76.3789 207.293 92.2188 215.996 106.297C226.461 123.227 241.398 136.879 259.191 145.77L260 146.176V452H170V230C170 228.449 169.641 226.918 168.945 225.527L148.945 185.527Z" fill="url(#paint1_linear)"/>
<defs>
<linearGradient id="paint0_linear" x1="140" y1="120" x2="140" y2="140" gradientUnits="userSpaceOnUse">
<stop stop-color="#3901F8"/>
<stop offset="1" stop-color="#E05D96"/>
</linearGradient>
<linearGradient id="paint1_linear" x1="140" y1="0" x2="140" y2="512" gradientUnits="userSpaceOnUse">
<stop stop-color="#3901F8"/>
<stop offset="1" stop-color="#E05D96"/>
</linearGradient>
</defs>
</svg>
