<svg width="643" height="709" viewBox="0 0 643 709" fill="none" xmlns="http://www.w3.org/2000/svg">
<rect width="643" height="709" rx="5" fill="#EBEBEB"/>
<path d="M173.047 232.367C161.469 229.039 153.031 224.961 147.734 220.133C142.484 215.258 139.859 209.258 139.859 202.133C139.859 194.07 143.07 187.414 149.492 182.164C155.961 176.867 164.352 174.219 174.664 174.219C181.695 174.219 187.953 175.578 193.438 178.297C198.969 181.016 203.234 184.766 206.234 189.547C209.281 194.328 210.805 199.555 210.805 205.227H197.234C197.234 199.039 195.266 194.188 191.328 190.672C187.391 187.109 181.836 185.328 174.664 185.328C168.008 185.328 162.805 186.805 159.055 189.758C155.352 192.664 153.5 196.719 153.5 201.922C153.5 206.094 155.258 209.633 158.773 212.539C162.336 215.398 168.359 218.023 176.844 220.414C185.375 222.805 192.031 225.453 196.812 228.359C201.641 231.219 205.203 234.57 207.5 238.414C209.844 242.258 211.016 246.781 211.016 251.984C211.016 260.281 207.781 266.938 201.312 271.953C194.844 276.922 186.195 279.406 175.367 279.406C168.336 279.406 161.773 278.07 155.68 275.398C149.586 272.68 144.875 268.977 141.547 264.289C138.266 259.602 136.625 254.281 136.625 248.328H150.195C150.195 254.516 152.469 259.414 157.016 263.023C161.609 266.586 167.727 268.367 175.367 268.367C182.492 268.367 187.953 266.914 191.75 264.008C195.547 261.102 197.445 257.141 197.445 252.125C197.445 247.109 195.688 243.242 192.172 240.523C188.656 237.758 182.281 235.039 173.047 232.367ZM257.914 279.406C247.602 279.406 239.211 276.031 232.742 269.281C226.273 262.484 223.039 253.414 223.039 242.07V239.68C223.039 232.133 224.469 225.406 227.328 219.5C230.234 213.547 234.266 208.906 239.422 205.578C244.625 202.203 250.25 200.516 256.297 200.516C266.188 200.516 273.875 203.773 279.359 210.289C284.844 216.805 287.586 226.133 287.586 238.273V243.688H236.047C236.234 251.188 238.414 257.258 242.586 261.898C246.805 266.492 252.148 268.789 258.617 268.789C263.211 268.789 267.102 267.852 270.289 265.977C273.477 264.102 276.266 261.617 278.656 258.523L286.602 264.711C280.227 274.508 270.664 279.406 257.914 279.406ZM256.297 211.203C251.047 211.203 246.641 213.125 243.078 216.969C239.516 220.766 237.312 226.109 236.469 233H274.578V232.016C274.203 225.406 272.422 220.297 269.234 216.688C266.047 213.031 261.734 211.203 256.297 211.203ZM316.836 278H303.828V170H316.836V278ZM369.289 279.406C358.977 279.406 350.586 276.031 344.117 269.281C337.648 262.484 334.414 253.414 334.414 242.07V239.68C334.414 232.133 335.844 225.406 338.703 219.5C341.609 213.547 345.641 208.906 350.797 205.578C356 202.203 361.625 200.516 367.672 200.516C377.562 200.516 385.25 203.773 390.734 210.289C396.219 216.805 398.961 226.133 398.961 238.273V243.688H347.422C347.609 251.188 349.789 257.258 353.961 261.898C358.18 266.492 363.523 268.789 369.992 268.789C374.586 268.789 378.477 267.852 381.664 265.977C384.852 264.102 387.641 261.617 390.031 258.523L397.977 264.711C391.602 274.508 382.039 279.406 369.289 279.406ZM367.672 211.203C362.422 211.203 358.016 213.125 354.453 216.969C350.891 220.766 348.688 226.109 347.844 233H385.953V232.016C385.578 225.406 383.797 220.297 380.609 216.688C377.422 213.031 373.109 211.203 367.672 211.203ZM444.594 268.789C449.234 268.789 453.289 267.383 456.758 264.57C460.227 261.758 462.148 258.242 462.523 254.023H474.828C474.594 258.383 473.094 262.531 470.328 266.469C467.562 270.406 463.859 273.547 459.219 275.891C454.625 278.234 449.75 279.406 444.594 279.406C434.234 279.406 425.984 275.961 419.844 269.07C413.75 262.133 410.703 252.664 410.703 240.664V238.484C410.703 231.078 412.062 224.492 414.781 218.727C417.5 212.961 421.391 208.484 426.453 205.297C431.562 202.109 437.586 200.516 444.523 200.516C453.055 200.516 460.133 203.07 465.758 208.18C471.43 213.289 474.453 219.922 474.828 228.078H462.523C462.148 223.156 460.273 219.125 456.898 215.984C453.57 212.797 449.445 211.203 444.523 211.203C437.914 211.203 432.781 213.594 429.125 218.375C425.516 223.109 423.711 229.977 423.711 238.977V241.438C423.711 250.203 425.516 256.953 429.125 261.688C432.734 266.422 437.891 268.789 444.594 268.789ZM507.102 183.5V201.922H521.305V211.977H507.102V259.156C507.102 262.203 507.734 264.5 509 266.047C510.266 267.547 512.422 268.297 515.469 268.297C516.969 268.297 519.031 268.016 521.656 267.453V278C518.234 278.938 514.906 279.406 511.672 279.406C505.859 279.406 501.477 277.648 498.523 274.133C495.57 270.617 494.094 265.625 494.094 259.156V211.977H480.242V201.922H494.094V183.5H507.102ZM185.141 471.82C185.141 468.305 183.805 465.586 181.133 463.664C178.508 461.695 173.891 460.008 167.281 458.602C160.719 457.195 155.492 455.508 151.602 453.539C147.758 451.57 144.898 449.227 143.023 446.508C141.195 443.789 140.281 440.555 140.281 436.805C140.281 430.57 142.906 425.297 148.156 420.984C153.453 416.672 160.203 414.516 168.406 414.516C177.031 414.516 184.016 416.742 189.359 421.195C194.75 425.648 197.445 431.344 197.445 438.281H184.367C184.367 434.719 182.844 431.648 179.797 429.07C176.797 426.492 173 425.203 168.406 425.203C163.672 425.203 159.969 426.234 157.297 428.297C154.625 430.359 153.289 433.055 153.289 436.383C153.289 439.523 154.531 441.891 157.016 443.484C159.5 445.078 163.977 446.602 170.445 448.055C176.961 449.508 182.234 451.242 186.266 453.258C190.297 455.273 193.273 457.711 195.195 460.57C197.164 463.383 198.148 466.828 198.148 470.906C198.148 477.703 195.43 483.164 189.992 487.289C184.555 491.367 177.5 493.406 168.828 493.406C162.734 493.406 157.344 492.328 152.656 490.172C147.969 488.016 144.289 485.016 141.617 481.172C138.992 477.281 137.68 473.086 137.68 468.586H150.688C150.922 472.945 152.656 476.414 155.891 478.992C159.172 481.523 163.484 482.789 168.828 482.789C173.75 482.789 177.688 481.805 180.641 479.836C183.641 477.82 185.141 475.148 185.141 471.82ZM228.102 425.133C233.867 418.055 241.367 414.516 250.602 414.516C266.68 414.516 274.789 423.586 274.93 441.727V492H261.922V441.656C261.875 436.172 260.609 432.117 258.125 429.492C255.688 426.867 251.867 425.555 246.664 425.555C242.445 425.555 238.742 426.68 235.555 428.93C232.367 431.18 229.883 434.133 228.102 437.789V492H215.094V384H228.102V425.133ZM290.961 453.258C290.961 445.805 292.414 439.102 295.32 433.148C298.273 427.195 302.352 422.602 307.555 419.367C312.805 416.133 318.781 414.516 325.484 414.516C335.844 414.516 344.211 418.102 350.586 425.273C357.008 432.445 360.219 441.984 360.219 453.891V454.805C360.219 462.211 358.789 468.867 355.93 474.773C353.117 480.633 349.062 485.203 343.766 488.484C338.516 491.766 332.469 493.406 325.625 493.406C315.312 493.406 306.945 489.82 300.523 482.648C294.148 475.477 290.961 465.984 290.961 454.172V453.258ZM304.039 454.805C304.039 463.242 305.984 470.016 309.875 475.125C313.812 480.234 319.062 482.789 325.625 482.789C332.234 482.789 337.484 480.211 341.375 475.055C345.266 469.852 347.211 462.586 347.211 453.258C347.211 444.914 345.219 438.164 341.234 433.008C337.297 427.805 332.047 425.203 325.484 425.203C319.062 425.203 313.883 427.758 309.945 432.867C306.008 437.977 304.039 445.289 304.039 454.805ZM408.102 493.406C397.789 493.406 389.398 490.031 382.93 483.281C376.461 476.484 373.227 467.414 373.227 456.07V453.68C373.227 446.133 374.656 439.406 377.516 433.5C380.422 427.547 384.453 422.906 389.609 419.578C394.812 416.203 400.438 414.516 406.484 414.516C416.375 414.516 424.062 417.773 429.547 424.289C435.031 430.805 437.773 440.133 437.773 452.273V457.688H386.234C386.422 465.188 388.602 471.258 392.773 475.898C396.992 480.492 402.336 482.789 408.805 482.789C413.398 482.789 417.289 481.852 420.477 479.977C423.664 478.102 426.453 475.617 428.844 472.523L436.789 478.711C430.414 488.508 420.852 493.406 408.102 493.406ZM406.484 425.203C401.234 425.203 396.828 427.125 393.266 430.969C389.703 434.766 387.5 440.109 386.656 447H424.766V446.016C424.391 439.406 422.609 434.297 419.422 430.688C416.234 427.031 411.922 425.203 406.484 425.203ZM497.188 471.82C497.188 468.305 495.852 465.586 493.18 463.664C490.555 461.695 485.938 460.008 479.328 458.602C472.766 457.195 467.539 455.508 463.648 453.539C459.805 451.57 456.945 449.227 455.07 446.508C453.242 443.789 452.328 440.555 452.328 436.805C452.328 430.57 454.953 425.297 460.203 420.984C465.5 416.672 472.25 414.516 480.453 414.516C489.078 414.516 496.062 416.742 501.406 421.195C506.797 425.648 509.492 431.344 509.492 438.281H496.414C496.414 434.719 494.891 431.648 491.844 429.07C488.844 426.492 485.047 425.203 480.453 425.203C475.719 425.203 472.016 426.234 469.344 428.297C466.672 430.359 465.336 433.055 465.336 436.383C465.336 439.523 466.578 441.891 469.062 443.484C471.547 445.078 476.023 446.602 482.492 448.055C489.008 449.508 494.281 451.242 498.312 453.258C502.344 455.273 505.32 457.711 507.242 460.57C509.211 463.383 510.195 466.828 510.195 470.906C510.195 477.703 507.477 483.164 502.039 487.289C496.602 491.367 489.547 493.406 480.875 493.406C474.781 493.406 469.391 492.328 464.703 490.172C460.016 488.016 456.336 485.016 453.664 481.172C451.039 477.281 449.727 473.086 449.727 468.586H462.734C462.969 472.945 464.703 476.414 467.938 478.992C471.219 481.523 475.531 482.789 480.875 482.789C485.797 482.789 489.734 481.805 492.688 479.836C495.688 477.82 497.188 475.148 497.188 471.82Z" fill="#3A3A3A"/>
</svg>
