<svg width="643" height="709" viewBox="0 0 643 709" fill="none" xmlns="http://www.w3.org/2000/svg">
<rect width="643" height="709" rx="5" fill="#EBEBEB"/>
<path d="M173.047 232.367C161.469 229.039 153.031 224.961 147.734 220.133C142.484 215.258 139.859 209.258 139.859 202.133C139.859 194.07 143.07 187.414 149.492 182.164C155.961 176.867 164.352 174.219 174.664 174.219C181.695 174.219 187.953 175.578 193.438 178.297C198.969 181.016 203.234 184.766 206.234 189.547C209.281 194.328 210.805 199.555 210.805 205.227H197.234C197.234 199.039 195.266 194.188 191.328 190.672C187.391 187.109 181.836 185.328 174.664 185.328C168.008 185.328 162.805 186.805 159.055 189.758C155.352 192.664 153.5 196.719 153.5 201.922C153.5 206.094 155.258 209.633 158.773 212.539C162.336 215.398 168.359 218.023 176.844 220.414C185.375 222.805 192.031 225.453 196.812 228.359C201.641 231.219 205.203 234.57 207.5 238.414C209.844 242.258 211.016 246.781 211.016 251.984C211.016 260.281 207.781 266.938 201.312 271.953C194.844 276.922 186.195 279.406 175.367 279.406C168.336 279.406 161.773 278.07 155.68 275.398C149.586 272.68 144.875 268.977 141.547 264.289C138.266 259.602 136.625 254.281 136.625 248.328H150.195C150.195 254.516 152.469 259.414 157.016 263.023C161.609 266.586 167.727 268.367 175.367 268.367C182.492 268.367 187.953 266.914 191.75 264.008C195.547 261.102 197.445 257.141 197.445 252.125C197.445 247.109 195.688 243.242 192.172 240.523C188.656 237.758 182.281 235.039 173.047 232.367ZM257.914 279.406C247.602 279.406 239.211 276.031 232.742 269.281C226.273 262.484 223.039 253.414 223.039 242.07V239.68C223.039 232.133 224.469 225.406 227.328 219.5C230.234 213.547 234.266 208.906 239.422 205.578C244.625 202.203 250.25 200.516 256.297 200.516C266.188 200.516 273.875 203.773 279.359 210.289C284.844 216.805 287.586 226.133 287.586 238.273V243.688H236.047C236.234 251.188 238.414 257.258 242.586 261.898C246.805 266.492 252.148 268.789 258.617 268.789C263.211 268.789 267.102 267.852 270.289 265.977C273.477 264.102 276.266 261.617 278.656 258.523L286.602 264.711C280.227 274.508 270.664 279.406 257.914 279.406ZM256.297 211.203C251.047 211.203 246.641 213.125 243.078 216.969C239.516 220.766 237.312 226.109 236.469 233H274.578V232.016C274.203 225.406 272.422 220.297 269.234 216.688C266.047 213.031 261.734 211.203 256.297 211.203ZM316.836 278H303.828V170H316.836V278ZM369.289 279.406C358.977 279.406 350.586 276.031 344.117 269.281C337.648 262.484 334.414 253.414 334.414 242.07V239.68C334.414 232.133 335.844 225.406 338.703 219.5C341.609 213.547 345.641 208.906 350.797 205.578C356 202.203 361.625 200.516 367.672 200.516C377.562 200.516 385.25 203.773 390.734 210.289C396.219 216.805 398.961 226.133 398.961 238.273V243.688H347.422C347.609 251.188 349.789 257.258 353.961 261.898C358.18 266.492 363.523 268.789 369.992 268.789C374.586 268.789 378.477 267.852 381.664 265.977C384.852 264.102 387.641 261.617 390.031 258.523L397.977 264.711C391.602 274.508 382.039 279.406 369.289 279.406ZM367.672 211.203C362.422 211.203 358.016 213.125 354.453 216.969C350.891 220.766 348.688 226.109 347.844 233H385.953V232.016C385.578 225.406 383.797 220.297 380.609 216.688C377.422 213.031 373.109 211.203 367.672 211.203ZM444.594 268.789C449.234 268.789 453.289 267.383 456.758 264.57C460.227 261.758 462.148 258.242 462.523 254.023H474.828C474.594 258.383 473.094 262.531 470.328 266.469C467.562 270.406 463.859 273.547 459.219 275.891C454.625 278.234 449.75 279.406 444.594 279.406C434.234 279.406 425.984 275.961 419.844 269.07C413.75 262.133 410.703 252.664 410.703 240.664V238.484C410.703 231.078 412.062 224.492 414.781 218.727C417.5 212.961 421.391 208.484 426.453 205.297C431.562 202.109 437.586 200.516 444.523 200.516C453.055 200.516 460.133 203.07 465.758 208.18C471.43 213.289 474.453 219.922 474.828 228.078H462.523C462.148 223.156 460.273 219.125 456.898 215.984C453.57 212.797 449.445 211.203 444.523 211.203C437.914 211.203 432.781 213.594 429.125 218.375C425.516 223.109 423.711 229.977 423.711 238.977V241.438C423.711 250.203 425.516 256.953 429.125 261.688C432.734 266.422 437.891 268.789 444.594 268.789ZM507.102 183.5V201.922H521.305V211.977H507.102V259.156C507.102 262.203 507.734 264.5 509 266.047C510.266 267.547 512.422 268.297 515.469 268.297C516.969 268.297 519.031 268.016 521.656 267.453V278C518.234 278.938 514.906 279.406 511.672 279.406C505.859 279.406 501.477 277.648 498.523 274.133C495.57 270.617 494.094 265.625 494.094 259.156V211.977H480.242V201.922H494.094V183.5H507.102ZM205.109 454.805C205.109 466.383 202.461 475.711 197.164 482.789C191.867 489.867 184.695 493.406 175.648 493.406C166.414 493.406 159.148 490.477 153.852 484.617V521.25H140.844V415.922H152.727L153.359 424.359C158.656 417.797 166.016 414.516 175.438 414.516C184.578 414.516 191.797 417.961 197.094 424.852C202.438 431.742 205.109 441.328 205.109 453.609V454.805ZM192.102 453.328C192.102 444.75 190.273 437.977 186.617 433.008C182.961 428.039 177.945 425.555 171.57 425.555C163.695 425.555 157.789 429.047 153.852 436.031V472.383C157.742 479.32 163.695 482.789 171.711 482.789C177.945 482.789 182.891 480.328 186.547 475.406C190.25 470.438 192.102 463.078 192.102 453.328ZM268.672 492C267.922 490.5 267.312 487.828 266.844 483.984C260.797 490.266 253.578 493.406 245.188 493.406C237.688 493.406 231.523 491.297 226.695 487.078C221.914 482.812 219.523 477.422 219.523 470.906C219.523 462.984 222.523 456.844 228.523 452.484C234.57 448.078 243.055 445.875 253.977 445.875H266.633V439.898C266.633 435.352 265.273 431.742 262.555 429.07C259.836 426.352 255.828 424.992 250.531 424.992C245.891 424.992 242 426.164 238.859 428.508C235.719 430.852 234.148 433.688 234.148 437.016H221.07C221.07 433.219 222.406 429.562 225.078 426.047C227.797 422.484 231.453 419.672 236.047 417.609C240.688 415.547 245.773 414.516 251.305 414.516C260.07 414.516 266.938 416.719 271.906 421.125C276.875 425.484 279.453 431.508 279.641 439.195V474.211C279.641 481.195 280.531 486.75 282.312 490.875V492H268.672ZM247.086 482.086C251.164 482.086 255.031 481.031 258.688 478.922C262.344 476.812 264.992 474.07 266.633 470.695V455.086H256.438C240.5 455.086 232.531 459.75 232.531 469.078C232.531 473.156 233.891 476.344 236.609 478.641C239.328 480.938 242.82 482.086 247.086 482.086ZM312.336 415.922L312.758 425.484C318.57 418.172 326.164 414.516 335.539 414.516C351.617 414.516 359.727 423.586 359.867 441.727V492H346.859V441.656C346.812 436.172 345.547 432.117 343.062 429.492C340.625 426.867 336.805 425.555 331.602 425.555C327.383 425.555 323.68 426.68 320.492 428.93C317.305 431.18 314.82 434.133 313.039 437.789V492H300.031V415.922H312.336ZM397.133 397.5V415.922H411.336V425.977H397.133V473.156C397.133 476.203 397.766 478.5 399.031 480.047C400.297 481.547 402.453 482.297 405.5 482.297C407 482.297 409.062 482.016 411.688 481.453V492C408.266 492.938 404.938 493.406 401.703 493.406C395.891 493.406 391.508 491.648 388.555 488.133C385.602 484.617 384.125 479.625 384.125 473.156V425.977H370.273V415.922H384.125V397.5H397.133ZM470.891 471.82C470.891 468.305 469.555 465.586 466.883 463.664C464.258 461.695 459.641 460.008 453.031 458.602C446.469 457.195 441.242 455.508 437.352 453.539C433.508 451.57 430.648 449.227 428.773 446.508C426.945 443.789 426.031 440.555 426.031 436.805C426.031 430.57 428.656 425.297 433.906 420.984C439.203 416.672 445.953 414.516 454.156 414.516C462.781 414.516 469.766 416.742 475.109 421.195C480.5 425.648 483.195 431.344 483.195 438.281H470.117C470.117 434.719 468.594 431.648 465.547 429.07C462.547 426.492 458.75 425.203 454.156 425.203C449.422 425.203 445.719 426.234 443.047 428.297C440.375 430.359 439.039 433.055 439.039 436.383C439.039 439.523 440.281 441.891 442.766 443.484C445.25 445.078 449.727 446.602 456.195 448.055C462.711 449.508 467.984 451.242 472.016 453.258C476.047 455.273 479.023 457.711 480.945 460.57C482.914 463.383 483.898 466.828 483.898 470.906C483.898 477.703 481.18 483.164 475.742 487.289C470.305 491.367 463.25 493.406 454.578 493.406C448.484 493.406 443.094 492.328 438.406 490.172C433.719 488.016 430.039 485.016 427.367 481.172C424.742 477.281 423.43 473.086 423.43 468.586H436.438C436.672 472.945 438.406 476.414 441.641 478.992C444.922 481.523 449.234 482.789 454.578 482.789C459.5 482.789 463.438 481.805 466.391 479.836C469.391 477.82 470.891 475.148 470.891 471.82Z" fill="#3A3A3A"/>
</svg>
