<svg width="643" height="709" viewBox="0 0 643 709" fill="none" xmlns="http://www.w3.org/2000/svg">
<rect width="643" height="709" rx="5" fill="#EBEBEB"/>
<path d="M173.047 232.367C161.469 229.039 153.031 224.961 147.734 220.133C142.484 215.258 139.859 209.258 139.859 202.133C139.859 194.07 143.07 187.414 149.492 182.164C155.961 176.867 164.352 174.219 174.664 174.219C181.695 174.219 187.953 175.578 193.438 178.297C198.969 181.016 203.234 184.766 206.234 189.547C209.281 194.328 210.805 199.555 210.805 205.227H197.234C197.234 199.039 195.266 194.188 191.328 190.672C187.391 187.109 181.836 185.328 174.664 185.328C168.008 185.328 162.805 186.805 159.055 189.758C155.352 192.664 153.5 196.719 153.5 201.922C153.5 206.094 155.258 209.633 158.773 212.539C162.336 215.398 168.359 218.023 176.844 220.414C185.375 222.805 192.031 225.453 196.812 228.359C201.641 231.219 205.203 234.57 207.5 238.414C209.844 242.258 211.016 246.781 211.016 251.984C211.016 260.281 207.781 266.938 201.312 271.953C194.844 276.922 186.195 279.406 175.367 279.406C168.336 279.406 161.773 278.07 155.68 275.398C149.586 272.68 144.875 268.977 141.547 264.289C138.266 259.602 136.625 254.281 136.625 248.328H150.195C150.195 254.516 152.469 259.414 157.016 263.023C161.609 266.586 167.727 268.367 175.367 268.367C182.492 268.367 187.953 266.914 191.75 264.008C195.547 261.102 197.445 257.141 197.445 252.125C197.445 247.109 195.688 243.242 192.172 240.523C188.656 237.758 182.281 235.039 173.047 232.367ZM257.914 279.406C247.602 279.406 239.211 276.031 232.742 269.281C226.273 262.484 223.039 253.414 223.039 242.07V239.68C223.039 232.133 224.469 225.406 227.328 219.5C230.234 213.547 234.266 208.906 239.422 205.578C244.625 202.203 250.25 200.516 256.297 200.516C266.188 200.516 273.875 203.773 279.359 210.289C284.844 216.805 287.586 226.133 287.586 238.273V243.688H236.047C236.234 251.188 238.414 257.258 242.586 261.898C246.805 266.492 252.148 268.789 258.617 268.789C263.211 268.789 267.102 267.852 270.289 265.977C273.477 264.102 276.266 261.617 278.656 258.523L286.602 264.711C280.227 274.508 270.664 279.406 257.914 279.406ZM256.297 211.203C251.047 211.203 246.641 213.125 243.078 216.969C239.516 220.766 237.312 226.109 236.469 233H274.578V232.016C274.203 225.406 272.422 220.297 269.234 216.688C266.047 213.031 261.734 211.203 256.297 211.203ZM316.836 278H303.828V170H316.836V278ZM369.289 279.406C358.977 279.406 350.586 276.031 344.117 269.281C337.648 262.484 334.414 253.414 334.414 242.07V239.68C334.414 232.133 335.844 225.406 338.703 219.5C341.609 213.547 345.641 208.906 350.797 205.578C356 202.203 361.625 200.516 367.672 200.516C377.562 200.516 385.25 203.773 390.734 210.289C396.219 216.805 398.961 226.133 398.961 238.273V243.688H347.422C347.609 251.188 349.789 257.258 353.961 261.898C358.18 266.492 363.523 268.789 369.992 268.789C374.586 268.789 378.477 267.852 381.664 265.977C384.852 264.102 387.641 261.617 390.031 258.523L397.977 264.711C391.602 274.508 382.039 279.406 369.289 279.406ZM367.672 211.203C362.422 211.203 358.016 213.125 354.453 216.969C350.891 220.766 348.688 226.109 347.844 233H385.953V232.016C385.578 225.406 383.797 220.297 380.609 216.688C377.422 213.031 373.109 211.203 367.672 211.203ZM444.594 268.789C449.234 268.789 453.289 267.383 456.758 264.57C460.227 261.758 462.148 258.242 462.523 254.023H474.828C474.594 258.383 473.094 262.531 470.328 266.469C467.562 270.406 463.859 273.547 459.219 275.891C454.625 278.234 449.75 279.406 444.594 279.406C434.234 279.406 425.984 275.961 419.844 269.07C413.75 262.133 410.703 252.664 410.703 240.664V238.484C410.703 231.078 412.062 224.492 414.781 218.727C417.5 212.961 421.391 208.484 426.453 205.297C431.562 202.109 437.586 200.516 444.523 200.516C453.055 200.516 460.133 203.07 465.758 208.18C471.43 213.289 474.453 219.922 474.828 228.078H462.523C462.148 223.156 460.273 219.125 456.898 215.984C453.57 212.797 449.445 211.203 444.523 211.203C437.914 211.203 432.781 213.594 429.125 218.375C425.516 223.109 423.711 229.977 423.711 238.977V241.438C423.711 250.203 425.516 256.953 429.125 261.688C432.734 266.422 437.891 268.789 444.594 268.789ZM507.102 183.5V201.922H521.305V211.977H507.102V259.156C507.102 262.203 507.734 264.5 509 266.047C510.266 267.547 512.422 268.297 515.469 268.297C516.969 268.297 519.031 268.016 521.656 267.453V278C518.234 278.938 514.906 279.406 511.672 279.406C505.859 279.406 501.477 277.648 498.523 274.133C495.57 270.617 494.094 265.625 494.094 259.156V211.977H480.242V201.922H494.094V183.5H507.102ZM187.812 492C187.062 490.5 186.453 487.828 185.984 483.984C179.938 490.266 172.719 493.406 164.328 493.406C156.828 493.406 150.664 491.297 145.836 487.078C141.055 482.812 138.664 477.422 138.664 470.906C138.664 462.984 141.664 456.844 147.664 452.484C153.711 448.078 162.195 445.875 173.117 445.875H185.773V439.898C185.773 435.352 184.414 431.742 181.695 429.07C178.977 426.352 174.969 424.992 169.672 424.992C165.031 424.992 161.141 426.164 158 428.508C154.859 430.852 153.289 433.688 153.289 437.016H140.211C140.211 433.219 141.547 429.562 144.219 426.047C146.938 422.484 150.594 419.672 155.188 417.609C159.828 415.547 164.914 414.516 170.445 414.516C179.211 414.516 186.078 416.719 191.047 421.125C196.016 425.484 198.594 431.508 198.781 439.195V474.211C198.781 481.195 199.672 486.75 201.453 490.875V492H187.812ZM166.227 482.086C170.305 482.086 174.172 481.031 177.828 478.922C181.484 476.812 184.133 474.07 185.773 470.695V455.086H175.578C159.641 455.086 151.672 459.75 151.672 469.078C151.672 473.156 153.031 476.344 155.75 478.641C158.469 480.938 161.961 482.086 166.227 482.086ZM272.539 397.5V415.922H286.742V425.977H272.539V473.156C272.539 476.203 273.172 478.5 274.438 480.047C275.703 481.547 277.859 482.297 280.906 482.297C282.406 482.297 284.469 482.016 287.094 481.453V492C283.672 492.938 280.344 493.406 277.109 493.406C271.297 493.406 266.914 491.648 263.961 488.133C261.008 484.617 259.531 479.625 259.531 473.156V425.977H245.68V415.922H259.531V397.5H272.539ZM297.148 453.258C297.148 445.805 298.602 439.102 301.508 433.148C304.461 427.195 308.539 422.602 313.742 419.367C318.992 416.133 324.969 414.516 331.672 414.516C342.031 414.516 350.398 418.102 356.773 425.273C363.195 432.445 366.406 441.984 366.406 453.891V454.805C366.406 462.211 364.977 468.867 362.117 474.773C359.305 480.633 355.25 485.203 349.953 488.484C344.703 491.766 338.656 493.406 331.812 493.406C321.5 493.406 313.133 489.82 306.711 482.648C300.336 475.477 297.148 465.984 297.148 454.172V453.258ZM310.227 454.805C310.227 463.242 312.172 470.016 316.062 475.125C320 480.234 325.25 482.789 331.812 482.789C338.422 482.789 343.672 480.211 347.562 475.055C351.453 469.852 353.398 462.586 353.398 453.258C353.398 444.914 351.406 438.164 347.422 433.008C343.484 427.805 338.234 425.203 331.672 425.203C325.25 425.203 320.07 427.758 316.133 432.867C312.195 437.977 310.227 445.289 310.227 454.805ZM446.984 454.805C446.984 466.383 444.336 475.711 439.039 482.789C433.742 489.867 426.57 493.406 417.523 493.406C408.289 493.406 401.023 490.477 395.727 484.617V521.25H382.719V415.922H394.602L395.234 424.359C400.531 417.797 407.891 414.516 417.312 414.516C426.453 414.516 433.672 417.961 438.969 424.852C444.312 431.742 446.984 441.328 446.984 453.609V454.805ZM433.977 453.328C433.977 444.75 432.148 437.977 428.492 433.008C424.836 428.039 419.82 425.555 413.445 425.555C405.57 425.555 399.664 429.047 395.727 436.031V472.383C399.617 479.32 405.57 482.789 413.586 482.789C419.82 482.789 424.766 480.328 428.422 475.406C432.125 470.438 433.977 463.078 433.977 453.328Z" fill="#3A3A3A"/>
</svg>
