<?xml version="1.0"?>
<svg xmlns="http://www.w3.org/2000/svg" id="Capa_1" enable-background="new 0 0 512.136 512.136" height="512px" viewBox="0 0 512.136 512.136" width="512px"><g><path d="m487.69 205.872-67.788-136.757c-1.702-3.434-4.598-6.113-8.152-7.542l-67.055-26.981 1.363-4.838c1.504-5.333-.751-11.069-5.484-13.951l-24.17-14.71c-1.175-.715-2.523-1.093-3.899-1.093h-112.875c-1.375 0-2.724.378-3.899 1.093l-24.17 14.71c-4.733 2.881-6.988 8.618-5.484 13.949l1.445 5.127-67.086 26.686c-3.583 1.425-6.498 4.112-8.21 7.565l-67.78 136.742c-3.256 6.567-.821 14.56 5.542 18.195l73.551 42.029v203.498c0 6.501 3.89 12.234 9.911 14.604 42.396 16.693 85.333 26.078 127.619 27.894 2.654.106 5.167-1.183 6.612-3.409l8.383-12.912 8.399 12.947c1.386 2.137 3.757 3.418 6.291 3.418.101 0 .202-.002.303-.006 42.567-1.713 85.53-11.11 127.694-27.93 5.98-2.386 9.844-8.107 9.844-14.578v-203.526l73.55-42.029c6.366-3.636 8.8-11.629 5.545-18.195zm-183.307-83.545-32.171-24.1 43.91-79.746 14.963 9.107zm-48.302-25.903c-.114-.216-.239-.428-.376-.635l-44.484-80.789h89.694zm-18.63 400.472c-39.243-2.175-79.089-11.136-118.504-26.655-.243-.096-.407-.356-.407-.647v-296.958c0-4.142-3.358-7.5-7.5-7.5s-7.5 3.358-7.5 7.5v76.184l-65.179-37.245 67.304-135.782c.065-.132.177-.234.314-.289l65.634-26.109 2.999 10.639c1.124 3.987 5.268 6.31 9.253 5.184 3.987-1.124 6.308-5.267 5.184-9.253l-5.257-18.65c-.002-.006-.003-.012-.005-.018l-2.736-9.708 14.963-9.107 43.718 79.396-32.003 24.363-10.52-37.321c-1.124-3.986-5.265-6.308-9.253-5.184-3.987 1.124-6.308 5.267-5.184 9.253l12.116 42.987c.988 3.506 3.64 6.289 7.094 7.444 1.141.381 2.319.569 3.489.569 2.373 0 4.715-.77 6.657-2.247l34.918-26.583 1.522 2.765v365.849zm171.145-248.076v-76.184c0-4.142-3.358-7.5-7.5-7.5s-7.5 3.358-7.5 7.5v296.986c0 .29-.162.549-.402.645-39.174 15.627-79.014 24.595-118.488 26.677l-11.139-17.17v-365.85l1.338-2.429 35.158 26.338c1.928 1.445 4.246 2.196 6.591 2.196 1.184 0 2.375-.191 3.527-.582 3.434-1.163 6.071-3.941 7.054-7.429l23.367-82.905 65.55 26.375c.135.054.246.156.311.288l67.312 135.798z" data-original="#000000" class="active-path" data-old_color="#000000" fill="#3A3A3A"/><path d="m367.851 196.093h-77.29c-5.608 0-10.171 4.563-10.171 10.171v75.039c0 3.834 2.12 7.302 5.531 9.051l38.643 19.812c1.454.746 3.048 1.119 4.643 1.119 1.594 0 3.188-.373 4.641-1.118l38.644-19.813c3.412-1.749 5.531-5.217 5.531-9.051v-19.956c0-4.142-3.358-7.5-7.5-7.5s-7.5 3.358-7.5 7.5v17.005l-33.816 17.337-33.816-17.337v-67.259h67.632v20.254c0 4.142 3.358 7.5 7.5 7.5s7.5-3.358 7.5-7.5v-25.083c-.001-5.608-4.564-10.171-10.172-10.171z" data-original="#000000" class="active-path" data-old_color="#000000" fill="#3A3A3A"/></g> </svg>
