<svg width="512" height="232" viewBox="0 0 512 232" fill="none" xmlns="http://www.w3.org/2000/svg">
<path d="M511.8 148.916C510.812 139.63 506.266 131.284 499.002 125.416C498.588 125.082 498.166 124.759 497.739 124.445C497.51 124.276 497.275 124.116 497.041 123.952C496.858 123.824 496.676 123.695 496.491 123.57C496.161 123.348 495.825 123.135 495.489 122.925C495.419 122.882 495.351 122.838 495.282 122.795C489.904 119.488 483.786 117.722 477.46 117.657C477.323 117.655 477.184 117.648 477.047 117.648C477.03 117.648 477.014 117.649 476.997 117.649C476.357 117.651 475.716 117.666 475.073 117.703C474.993 117.707 474.914 117.717 474.834 117.722C474.334 117.754 473.835 117.792 473.334 117.844C473.31 117.846 473.288 117.85 473.265 117.853C472.93 117.889 472.598 117.939 472.266 117.984C471.995 118.022 471.724 118.055 471.453 118.098C471.114 118.153 470.778 118.217 470.442 118.281C470.173 118.332 469.904 118.383 469.637 118.44C469.322 118.508 469.009 118.583 468.697 118.659C468.401 118.731 468.106 118.806 467.813 118.885C467.533 118.961 467.256 119.039 466.979 119.122C466.694 119.207 466.41 119.296 466.127 119.388L368.326 91.3359C364.905 89.4479 352.639 82.6819 336.131 73.6299L337.987 70.5369C340.273 66.7289 339.039 61.7909 335.23 59.5069C331.424 57.2219 326.483 58.4559 324.2 62.2639L322.018 65.8989C318.668 64.0659 315.222 62.1829 311.702 60.2609L313.445 57.3569C315.731 53.5489 314.497 48.6109 310.688 46.3269C306.882 44.0409 301.942 45.2769 299.658 49.0839L297.573 52.5579C294.153 50.6959 290.703 48.8209 287.244 46.9439L288.905 44.1769C291.191 40.3689 289.956 35.4309 286.148 33.1469C282.342 30.8609 277.401 32.0979 275.118 35.9039L273.094 39.2779C269.613 37.3969 266.156 35.5309 262.744 33.6949L264.363 30.9969C266.648 27.1889 265.411 22.2509 261.605 19.9659C257.798 17.6819 252.859 18.9159 250.575 22.7239L248.56 26.0839C244.99 24.1759 241.523 22.3299 238.178 20.5549L239.82 17.8169C242.105 14.0089 240.869 9.07094 237.063 6.78694C233.255 4.49894 228.316 5.73794 226.032 9.54394L223.928 13.0519C216.911 9.39294 210.93 6.33695 206.458 4.14995C192.557 -2.64605 183.328 0.157945 178.035 3.70595C166.122 11.6919 163.892 30.2399 163.62 40.5819C159.751 41.7529 155.93 43.5299 152.319 46.1369C151.094 47.0219 149.74 48.0289 148.267 49.1239C127.393 64.6439 88.54 93.5289 52.2 53.6229C52.127 53.5439 52.052 53.4639 51.976 53.3869C50.003 51.3889 32.246 34.0579 16.46 40.5339C5.382 45.0779 0 58.7719 0 82.3989V85.6289V168.877V195.799C0 215.079 15.685 230.764 34.964 230.764H80.94C85.38 230.764 88.98 227.165 88.98 222.724C88.98 218.282 85.38 214.684 80.94 214.684H34.964C24.552 214.684 16.081 206.213 16.081 195.8V176.918H79.058H300.254C306.678 177.225 312.645 177.385 318.454 177.414C311.537 185.669 305.628 197.68 304.859 214.847C302.52 214.787 300.914 214.724 300.186 214.693C300.07 214.688 299.955 214.686 299.841 214.686H105.954C101.514 214.686 97.914 218.285 97.914 222.726C97.914 227.168 101.514 230.766 105.954 230.766H299.67C301.636 230.849 306.219 231.009 312.837 231.058C312.847 231.058 312.856 231.059 312.866 231.059C313.072 231.06 313.291 231.061 313.501 231.062C313.538 231.062 313.578 231.062 313.617 231.063C314.065 231.065 314.518 231.067 314.983 231.069C315.53 231.071 316.087 231.072 316.659 231.072C331.112 231.072 353.431 230.478 377.671 227.653C438.982 220.507 481.561 202.652 504.231 174.586C510.098 167.32 512.787 158.203 511.8 148.916ZM352.872 158.954C352.89 158.485 352.908 158.021 352.929 157.56C352.958 156.896 352.99 156.236 353.024 155.582C353.044 155.199 353.066 154.82 353.087 154.442C353.129 153.721 353.174 153.005 353.223 152.297C353.243 152.009 353.264 151.721 353.284 151.436C353.343 150.638 353.405 149.848 353.473 149.068C353.488 148.892 353.503 148.717 353.519 148.544C353.599 147.642 353.685 146.752 353.777 145.872C353.781 145.827 353.787 145.782 353.791 145.737C354.725 136.928 356.25 129.261 358.36 122.812C361.298 113.829 364.665 109.499 366.646 107.575L449.275 131.279C449.155 131.42 449.039 131.556 448.916 131.692C448.725 131.904 448.531 132.115 448.33 132.326C448.095 132.57 447.849 132.813 447.599 133.055C447.386 133.262 447.173 133.469 446.95 133.674C446.686 133.916 446.408 134.156 446.129 134.397C445.895 134.597 445.666 134.799 445.423 134.998C445.125 135.242 444.81 135.484 444.497 135.726C444.249 135.917 444.009 136.109 443.752 136.297C443.41 136.549 443.05 136.798 442.692 137.047C442.44 137.223 442.197 137.4 441.937 137.573C441.514 137.856 441.068 138.136 440.624 138.416C440.409 138.552 440.204 138.689 439.984 138.824C439.315 139.232 438.624 139.638 437.911 140.038C437.683 140.166 437.439 140.291 437.207 140.418C436.705 140.692 436.204 140.967 435.68 141.237C435.365 141.4 435.035 141.559 434.712 141.72C434.251 141.951 433.793 142.181 433.317 142.408C432.96 142.578 432.589 142.746 432.224 142.914C431.761 143.128 431.299 143.342 430.822 143.553C430.436 143.723 430.038 143.892 429.643 144.061C429.166 144.265 428.689 144.468 428.199 144.67C427.788 144.838 427.367 145.006 426.948 145.172C426.454 145.368 425.957 145.564 425.45 145.757C425.016 145.923 424.574 146.087 424.131 146.251C423.619 146.441 423.101 146.629 422.576 146.816C422.123 146.977 421.665 147.138 421.204 147.296C420.668 147.48 420.126 147.664 419.579 147.845C419.109 148 418.637 148.156 418.159 148.31C417.599 148.49 417.031 148.667 416.461 148.844C415.977 148.994 415.493 149.143 415.002 149.291C414.413 149.468 413.815 149.64 413.216 149.814C412.723 149.957 412.232 150.099 411.732 150.24C411.108 150.415 410.473 150.585 409.838 150.757C409.344 150.89 408.854 151.024 408.353 151.155C407.685 151.33 407.003 151.499 406.322 151.671C405.835 151.793 405.354 151.918 404.861 152.038C404.107 152.221 403.339 152.399 402.571 152.578C402.136 152.679 401.709 152.783 401.27 152.883C400.064 153.156 398.842 153.425 397.603 153.687C397.398 153.73 397.187 153.771 396.981 153.814C395.931 154.033 394.876 154.25 393.803 154.46C393.332 154.552 392.85 154.641 392.375 154.731C391.555 154.887 390.737 155.045 389.904 155.196C389.36 155.295 388.807 155.39 388.259 155.486C387.481 155.623 386.702 155.762 385.913 155.895C385.324 155.995 384.726 156.09 384.131 156.187C383.369 156.311 382.605 156.435 381.834 156.555C381.213 156.651 380.586 156.745 379.959 156.838C379.196 156.953 378.431 157.066 377.66 157.176C377.015 157.268 376.365 157.357 375.714 157.447C374.948 157.552 374.179 157.656 373.404 157.757C372.737 157.844 372.067 157.93 371.395 158.013C370.619 158.111 369.838 158.205 369.054 158.298C368.374 158.378 367.691 158.458 367.005 158.536C366.215 158.626 365.419 158.713 364.622 158.798C363.926 158.873 363.23 158.947 362.529 159.018C361.726 159.099 360.918 159.178 360.108 159.256C359.402 159.324 358.696 159.392 357.985 159.457C357.162 159.532 356.331 159.603 355.5 159.672C354.789 159.732 354.082 159.794 353.366 159.851C353.192 159.865 353.015 159.877 352.842 159.891C352.852 159.578 352.862 159.264 352.872 158.954ZM16.081 160.837V98.7449C33.386 108.478 65.146 130.21 70.303 160.837H16.081ZM67.788 119.892C50.519 98.9289 26.403 85.5899 16.097 80.5129C16.395 58.6069 21.909 55.6779 22.553 55.4109C26.514 53.7779 35.593 59.7749 40.428 64.5879C60.275 86.3089 83.425 94.1469 109.234 87.8859C129.778 82.9019 147.352 69.8349 157.853 62.0279C159.261 60.9809 160.555 60.0179 161.725 59.1719C165.051 56.7699 168.824 55.5319 172.656 55.0319C172.683 55.0289 172.711 55.0299 172.737 55.0259C180.922 53.9919 189.297 56.3029 194.207 58.0699C194.3 58.1029 194.395 58.1379 194.485 58.1709C194.64 58.2279 194.792 58.2839 194.94 58.3389C195.058 58.3829 195.174 58.4269 195.286 58.4699C195.408 58.5169 195.533 58.5639 195.648 58.6089C195.858 58.6899 196.062 58.7709 196.252 58.8469C196.339 58.8809 196.416 58.9129 196.497 58.9479C196.616 58.9959 196.734 59.0439 196.843 59.0909C196.929 59.1269 197.011 59.1619 197.092 59.1949C197.184 59.2339 197.273 59.2719 197.357 59.3079C197.431 59.3399 197.507 59.3719 197.574 59.4009C197.633 59.4269 197.684 59.4489 197.739 59.4739C198.248 59.6989 198.538 59.8399 198.554 59.8469C198.558 59.8489 198.563 59.8499 198.567 59.8519C198.65 59.8939 198.733 59.9329 198.817 59.9719L260.952 88.2649C264.997 90.1049 269.763 88.3199 271.603 84.2789C273.443 80.2359 271.659 75.4689 267.617 73.6279L205.588 45.3849C205.578 45.3809 205.561 45.3719 205.55 45.3669C205.499 45.3419 205.437 45.3129 205.368 45.2799C205.285 45.2399 205.189 45.1949 205.081 45.1449C205.054 45.1329 205.031 45.1209 205.003 45.1089C203.104 44.2269 197.83 41.9549 190.872 40.3639C190.762 40.3379 190.65 40.3139 190.54 40.2889C190.051 40.1799 189.556 40.0749 189.051 39.9729C188.812 39.9249 188.573 39.8769 188.331 39.8299C188.069 39.7799 187.806 39.7319 187.541 39.6849C187.174 39.6199 186.803 39.5559 186.43 39.4959C186.193 39.4569 185.955 39.4209 185.715 39.3839C185.278 39.3179 184.836 39.2559 184.391 39.1989C184.224 39.1779 184.058 39.1549 183.889 39.1349C183.323 39.0659 182.753 39.0039 182.175 38.9499C182.086 38.9409 181.997 38.9349 181.908 38.9269C181.326 38.8759 180.738 38.8319 180.147 38.7959C180.094 38.7929 180.043 38.7879 179.99 38.7859C179.919 38.7819 179.85 38.7759 179.779 38.7719C180.304 29.9929 182.477 20.0709 186.987 17.0549C189.581 15.3239 193.753 15.8379 199.386 18.5929C203.547 20.6269 209.099 23.4609 215.629 26.8639L214.484 28.7709C212.199 32.5789 213.434 37.5169 217.241 39.8009C218.536 40.5779 219.962 40.9479 221.371 40.9479C224.103 40.9479 226.766 39.5549 228.273 37.0429L229.882 34.3619C233.218 36.1309 236.688 37.9789 240.265 39.8899L239.029 41.9499C236.744 45.7579 237.979 50.6959 241.787 52.9809C243.082 53.7579 244.508 54.1269 245.915 54.1269C248.647 54.1269 251.31 52.7339 252.817 50.2219L254.451 47.4989C257.859 49.3329 261.318 51.1989 264.801 53.0809L263.572 55.1289C261.286 58.9369 262.52 63.8749 266.329 66.1589C267.624 66.9369 269.05 67.3059 270.459 67.3059C273.189 67.3059 275.854 65.9129 277.361 63.3999L278.954 60.7459C282.411 62.6219 285.862 64.4979 289.284 66.3599L288.115 68.3079C285.829 72.1159 287.064 77.0539 290.872 79.3379C292.167 80.1159 293.593 80.4849 295.002 80.4849C297.733 80.4849 300.397 79.0919 301.904 76.5789L303.416 74.0599C306.933 75.9799 310.382 77.8639 313.733 79.6969L312.659 81.4859C310.373 85.2939 311.608 90.2319 315.416 92.5159C316.711 93.2939 318.137 93.6629 319.546 93.6629C322.277 93.6629 324.941 92.2699 326.448 89.7579L327.848 87.424C337.444 92.685 345.638 97.1889 351.517 100.426C349.766 102.798 347.981 105.754 346.282 109.439L291.95 84.7009C287.907 82.8649 283.141 84.6459 281.3 88.6879C279.46 92.7299 281.244 97.4969 285.287 99.3379L315.033 112.881C315.035 112.882 315.038 112.884 315.041 112.885L341.076 124.739C340.435 127.338 339.843 130.127 339.316 133.137C316.092 133.21 291.818 124.627 266.201 115.565C224.701 100.884 181.788 85.7039 140.82 108.489C94.439 134.292 71.623 122.336 67.788 119.892ZM302.151 160.88C301.745 160.861 301.339 160.856 300.934 160.851C300.834 160.846 300.736 160.836 300.634 160.834C300.43 160.829 300.223 160.831 300.024 160.839H86.564V160.837C85.652 153.591 83.606 146.801 80.764 140.469C95.868 142.157 118.302 139.425 148.636 122.551C183.263 103.288 220.944 116.619 260.838 130.733C285.975 139.626 311.89 148.769 337.329 149.188C337.165 151.268 337.03 153.43 336.919 155.66C336.914 155.761 336.909 155.86 336.904 155.961C336.83 157.506 336.769 159.087 336.723 160.706C336.721 160.785 336.717 160.86 336.714 160.94C335.789 160.985 334.871 161.02 333.952 161.058C323.121 161.424 312.384 161.371 302.151 160.88ZM491.72 164.48C473.033 187.614 437.59 203.017 386.28 210.326C382.859 210.813 379.369 211.264 375.807 211.68C374.405 211.843 373.009 211.998 371.621 212.146C371.171 212.194 370.725 212.238 370.276 212.284C369.34 212.382 368.404 212.478 367.476 212.568C366.953 212.619 366.435 212.667 365.915 212.716C365.065 212.796 364.216 212.876 363.373 212.951C362.834 212.999 362.298 213.044 361.762 213.09C360.947 213.16 360.136 213.228 359.33 213.293C358.794 213.336 358.262 213.378 357.73 213.418C356.926 213.48 356.126 213.54 355.331 213.598C354.812 213.636 354.294 213.673 353.779 213.708C352.984 213.763 352.193 213.815 351.408 213.867C350.912 213.899 350.414 213.931 349.921 213.962C349.103 214.012 348.294 214.06 347.487 214.106C347.047 214.131 346.605 214.157 346.169 214.181C345.288 214.229 344.419 214.273 343.554 214.316C343.205 214.333 342.849 214.352 342.501 214.37C341.355 214.425 340.225 214.475 339.111 214.521C339.056 214.523 339 214.526 338.945 214.529C337.752 214.578 336.578 214.622 335.424 214.662C335.188 214.671 334.962 214.677 334.728 214.685C333.841 214.715 332.961 214.743 332.099 214.768C331.722 214.779 331.356 214.787 330.984 214.798C330.274 214.817 329.567 214.836 328.876 214.851C328.475 214.86 328.083 214.868 327.687 214.876C327.052 214.889 326.421 214.902 325.803 214.912C325.388 214.92 324.981 214.925 324.574 214.931C323.996 214.94 323.425 214.947 322.863 214.953C322.456 214.957 322.053 214.962 321.654 214.966C321.418 214.968 321.191 214.969 320.958 214.971C322.6 186.777 342.075 178.029 346.21 176.483C346.269 176.48 346.33 176.475 346.389 176.471C346.513 176.463 346.642 176.455 346.767 176.446C347.093 176.426 347.419 176.404 347.753 176.383C347.908 176.372 348.068 176.362 348.226 176.351C348.543 176.33 348.862 176.308 349.188 176.286C349.352 176.274 349.519 176.262 349.685 176.251C350.01 176.228 350.335 176.205 350.667 176.181C350.845 176.168 351.026 176.154 351.206 176.141C351.536 176.116 351.867 176.092 352.204 176.067C352.378 176.054 352.553 176.04 352.729 176.026C353.087 175.998 353.446 175.97 353.812 175.941C353.966 175.928 354.124 175.915 354.279 175.904C354.665 175.873 355.052 175.842 355.444 175.809C355.604 175.795 355.767 175.781 355.929 175.768C356.32 175.735 356.714 175.702 357.113 175.666C357.288 175.651 357.466 175.635 357.643 175.619C358.032 175.585 358.422 175.549 358.818 175.514C359.011 175.497 359.206 175.479 359.401 175.46C359.788 175.425 360.175 175.388 360.568 175.351C360.771 175.332 360.974 175.311 361.179 175.292C361.571 175.254 361.965 175.216 362.364 175.176C362.567 175.156 362.771 175.135 362.975 175.115C363.383 175.074 363.793 175.032 364.207 174.99C364.405 174.97 364.605 174.948 364.804 174.928C365.221 174.884 365.64 174.84 366.063 174.794C366.273 174.771 366.485 174.748 366.698 174.724C367.119 174.678 367.542 174.631 367.967 174.584C368.173 174.56 368.379 174.537 368.586 174.513C369.022 174.464 369.46 174.413 369.9 174.361C370.11 174.336 370.32 174.311 370.531 174.286C370.967 174.235 371.406 174.181 371.846 174.127C372.064 174.1 372.283 174.073 372.502 174.046C372.945 173.991 373.389 173.936 373.836 173.879C374.055 173.851 374.274 173.823 374.494 173.794C374.939 173.736 375.385 173.678 375.833 173.619C376.062 173.589 376.293 173.558 376.523 173.527C376.968 173.467 377.414 173.407 377.861 173.345C378.093 173.313 378.324 173.281 378.557 173.249C379.012 173.186 379.467 173.121 379.924 173.056C380.151 173.024 380.379 172.991 380.606 172.957C381.069 172.889 381.534 172.821 382.001 172.752C382.227 172.718 382.454 172.683 382.682 172.649C383.145 172.579 383.609 172.509 384.075 172.436C384.313 172.4 384.551 172.362 384.79 172.324C385.254 172.251 385.719 172.177 386.185 172.102C386.421 172.064 386.657 172.026 386.893 171.987C387.36 171.911 387.828 171.834 388.296 171.754C388.537 171.713 388.778 171.673 389.02 171.632C389.485 171.553 389.951 171.473 390.417 171.392C390.665 171.349 390.911 171.305 391.159 171.261C391.626 171.178 392.094 171.095 392.561 171.01C392.804 170.966 393.048 170.921 393.291 170.877C393.761 170.79 394.231 170.703 394.702 170.614C394.95 170.568 395.196 170.521 395.444 170.474C395.916 170.384 396.387 170.293 396.86 170.2C397.102 170.153 397.346 170.105 397.589 170.056C398.063 169.962 398.537 169.866 399.012 169.77C399.259 169.72 399.505 169.669 399.753 169.618C400.225 169.52 400.697 169.422 401.169 169.321C401.414 169.27 401.66 169.217 401.904 169.165C402.379 169.063 402.854 168.959 403.329 168.855C403.571 168.801 403.815 168.748 404.057 168.694C404.538 168.587 405.019 168.477 405.499 168.367C405.733 168.313 405.968 168.26 406.201 168.205C406.685 168.092 407.167 167.979 407.649 167.864C407.884 167.808 408.118 167.752 408.352 167.696C408.832 167.58 409.313 167.462 409.793 167.342C410.029 167.283 410.264 167.225 410.499 167.166C410.975 167.046 411.45 166.925 411.925 166.803C412.162 166.742 412.399 166.681 412.636 166.619C413.111 166.495 413.585 166.368 414.058 166.242C414.292 166.179 414.527 166.117 414.759 166.052C415.232 165.923 415.704 165.793 416.174 165.661C416.406 165.596 416.638 165.531 416.87 165.466C417.343 165.332 417.814 165.195 418.285 165.058C418.513 164.992 418.741 164.925 418.968 164.859C419.434 164.721 419.899 164.581 420.363 164.44C420.593 164.37 420.825 164.301 421.056 164.229C421.518 164.086 421.979 163.942 422.439 163.796C422.665 163.724 422.892 163.653 423.119 163.581C423.58 163.433 424.039 163.282 424.497 163.131C424.719 163.058 424.941 162.985 425.163 162.911C425.623 162.757 426.08 162.6 426.535 162.443C426.752 162.368 426.968 162.294 427.184 162.219C427.641 162.059 428.095 161.896 428.549 161.733C428.76 161.657 428.972 161.581 429.183 161.505C429.634 161.34 430.082 161.173 430.529 161.003C430.739 160.924 430.949 160.845 431.158 160.766C431.603 160.596 432.045 160.423 432.485 160.249C432.692 160.168 432.899 160.087 433.105 160.006C433.546 159.83 433.983 159.651 434.418 159.471C434.619 159.388 434.82 159.307 435.019 159.223C435.456 159.04 435.891 158.854 436.323 158.667C436.517 158.583 436.711 158.501 436.904 158.416C437.335 158.227 437.761 158.035 438.186 157.842C438.377 157.756 438.569 157.67 438.759 157.584C439.183 157.389 439.604 157.191 440.023 156.991C440.207 156.904 440.393 156.817 440.575 156.729C440.995 156.526 441.41 156.321 441.824 156.114C442.001 156.026 442.179 155.939 442.355 155.85C442.767 155.641 443.173 155.429 443.578 155.216C443.752 155.125 443.926 155.036 444.099 154.944C444.502 154.73 444.898 154.511 445.294 154.292C445.462 154.199 445.633 154.108 445.8 154.013C446.197 153.79 446.586 153.564 446.976 153.338C447.137 153.245 447.3 153.153 447.458 153.058C447.85 152.826 448.235 152.589 448.619 152.354C448.769 152.262 448.921 152.172 449.07 152.078C449.456 151.837 449.834 151.591 450.213 151.345C450.354 151.253 450.498 151.163 450.639 151.071C451.019 150.82 451.39 150.564 451.761 150.309C451.893 150.218 452.027 150.129 452.158 150.038C452.533 149.775 452.9 149.507 453.265 149.239C453.385 149.151 453.507 149.065 453.626 148.976C453.998 148.699 454.36 148.417 454.722 148.134C454.828 148.051 454.937 147.97 455.043 147.887C455.409 147.598 455.764 147.303 456.118 147.007C456.213 146.928 456.312 146.849 456.406 146.77C456.771 146.461 457.126 146.147 457.478 145.831C457.555 145.762 457.636 145.695 457.712 145.625C458.086 145.286 458.45 144.942 458.808 144.596C458.858 144.548 458.911 144.501 458.96 144.452C459.23 144.188 459.491 143.92 459.752 143.652C459.794 143.609 459.837 143.566 459.88 143.523C459.958 143.443 460.04 143.363 460.117 143.283C460.128 143.272 460.138 143.262 460.149 143.251C460.425 142.962 460.689 142.667 460.955 142.372C461.03 142.288 461.108 142.207 461.182 142.123C461.582 141.672 461.971 141.216 462.345 140.753C462.377 140.713 462.415 140.68 462.447 140.64C462.865 140.13 463.307 139.648 463.769 139.191C463.888 139.073 464.016 138.966 464.137 138.852C464.238 138.757 464.345 138.67 464.447 138.578C464.758 138.299 465.069 138.019 465.398 137.763C465.51 137.675 465.624 137.593 465.737 137.507C465.862 137.413 465.994 137.328 466.122 137.237C466.528 136.95 466.939 136.666 467.369 136.41C467.387 136.399 467.404 136.389 467.423 136.378C467.575 136.288 467.734 136.209 467.889 136.123C468.396 135.843 468.914 135.578 469.452 135.344C469.755 135.211 470.06 135.083 470.37 134.967C470.605 134.879 470.838 134.787 471.076 134.709C471.469 134.579 471.87 134.472 472.272 134.367C472.519 134.304 472.761 134.231 473.011 134.176C473.46 134.078 473.917 134.011 474.375 133.947C474.58 133.918 474.78 133.874 474.986 133.852C475.651 133.78 476.324 133.742 477.003 133.739C477.572 133.737 478.138 133.759 478.701 133.808C478.86 133.822 479.014 133.85 479.172 133.868C479.601 133.916 480.029 133.97 480.452 134.047C480.625 134.078 480.793 134.121 480.964 134.157C481.372 134.244 481.779 134.337 482.18 134.452C482.343 134.498 482.504 134.551 482.666 134.601C483.07 134.728 483.471 134.866 483.867 135.02C484.02 135.08 484.174 135.141 484.326 135.205C484.722 135.371 485.111 135.553 485.495 135.747C485.641 135.821 485.788 135.891 485.932 135.969C486.321 136.178 486.702 136.407 487.078 136.644C487.207 136.725 487.337 136.798 487.464 136.883C487.956 137.21 488.436 137.557 488.902 137.933C492.826 141.102 495.281 145.609 495.815 150.625C496.342 155.632 494.889 160.556 491.72 164.48Z" fill="url(#paint0_linear)"/>
<defs>
<linearGradient id="paint0_linear" x1="256" y1="0" x2="256" y2="231.072" gradientUnits="userSpaceOnUse">
<stop stop-color="#3901F8"/>
<stop offset="1" stop-color="#E05D96"/>
</linearGradient>
</defs>
</svg>
