<?xml version="1.0"?>
<svg xmlns="http://www.w3.org/2000/svg" xmlns:xlink="http://www.w3.org/1999/xlink" version="1.1" id="Layer_1" x="0px" y="0px" viewBox="0 0 512 512" style="enable-background:new 0 0 512 512;" xml:space="preserve" width="512px" height="512px"><g><g>
	<g>
		<path d="M511.8,289.381c-0.988-9.286-5.534-17.632-12.798-23.5c-0.414-0.334-0.836-0.657-1.263-0.971    c-0.229-0.169-0.464-0.329-0.698-0.493c-0.183-0.128-0.365-0.257-0.55-0.382c-0.33-0.222-0.666-0.435-1.002-0.645    c-0.07-0.043-0.138-0.087-0.207-0.13c-5.378-3.307-11.496-5.073-17.822-5.138c-0.137-0.002-0.276-0.009-0.413-0.009    c-0.017,0-0.033,0.001-0.05,0.001c-0.64,0.002-1.281,0.017-1.924,0.054c-0.08,0.004-0.159,0.014-0.239,0.019    c-0.5,0.032-0.999,0.07-1.5,0.122c-0.024,0.002-0.046,0.006-0.069,0.009c-0.335,0.036-0.667,0.086-0.999,0.131    c-0.271,0.038-0.542,0.071-0.813,0.114c-0.339,0.055-0.675,0.119-1.011,0.183c-0.269,0.051-0.538,0.102-0.805,0.159    c-0.315,0.068-0.628,0.143-0.94,0.219c-0.296,0.072-0.591,0.147-0.884,0.226c-0.28,0.076-0.557,0.154-0.834,0.237    c-0.285,0.085-0.569,0.174-0.852,0.266l-97.801-28.052c-3.421-1.888-15.687-8.654-32.195-17.706l1.856-3.093    c2.286-3.808,1.052-8.746-2.757-11.03c-3.806-2.285-8.747-1.051-11.03,2.757l-2.182,3.635c-3.35-1.833-6.796-3.716-10.316-5.638    l1.743-2.904c2.286-3.808,1.052-8.746-2.757-11.03c-3.806-2.286-8.746-1.05-11.03,2.757l-2.085,3.474    c-3.42-1.862-6.87-3.737-10.329-5.614l1.661-2.767c2.286-3.808,1.051-8.746-2.757-11.03c-3.806-2.286-8.747-1.049-11.03,2.757    l-2.024,3.374c-3.481-1.881-6.938-3.747-10.35-5.583l1.619-2.698c2.285-3.808,1.048-8.746-2.758-11.031    c-3.807-2.284-8.746-1.05-11.03,2.758l-2.015,3.36c-3.57-1.908-7.037-3.754-10.382-5.529l1.642-2.738    c2.285-3.808,1.049-8.746-2.757-11.03c-3.808-2.288-8.747-1.049-11.031,2.757l-2.104,3.508c-7.017-3.659-12.998-6.715-17.47-8.902    c-13.901-6.796-23.13-3.992-28.423-0.444c-11.913,7.986-14.143,26.534-14.415,36.876c-3.869,1.171-7.69,2.948-11.301,5.555    c-1.225,0.885-2.579,1.892-4.052,2.987c-20.874,15.52-59.727,44.405-96.067,4.499c-0.073-0.079-0.148-0.159-0.224-0.236    c-1.973-1.998-19.73-19.329-35.516-12.853C5.382,185.543,0,199.237,0,222.864v3.23v83.248v26.922    c0,19.28,15.685,34.965,34.964,34.965H80.94c4.44,0,8.04-3.599,8.04-8.04c0-4.442-3.6-8.04-8.04-8.04H34.964    c-10.412,0-18.883-8.471-18.883-18.884v-18.882h62.977h221.196c6.424,0.307,12.391,0.467,18.2,0.496    c-6.917,8.255-12.826,20.266-13.595,37.433c-2.339-0.06-3.945-0.123-4.673-0.154c-0.116-0.005-0.231-0.007-0.345-0.007H105.954    c-4.44,0-8.04,3.599-8.04,8.04c0,4.442,3.6,8.04,8.04,8.04h193.716c1.966,0.083,6.549,0.243,13.167,0.292    c0.01,0,0.019,0.001,0.029,0.001c0.206,0.001,0.425,0.002,0.635,0.003c0.037,0,0.077,0,0.116,0.001    c0.448,0.002,0.901,0.004,1.366,0.006c0.547,0.002,1.104,0.003,1.676,0.003c14.453,0,36.772-0.594,61.012-3.419    c61.311-7.146,103.89-25.001,126.56-53.067C510.098,307.785,512.787,298.668,511.8,289.381z M352.872,299.419    c0.018-0.469,0.036-0.933,0.057-1.394c0.029-0.664,0.061-1.324,0.095-1.978c0.02-0.383,0.042-0.762,0.063-1.14    c0.042-0.721,0.087-1.437,0.136-2.145c0.02-0.288,0.041-0.576,0.061-0.861c0.059-0.798,0.121-1.588,0.189-2.368    c0.015-0.176,0.03-0.351,0.046-0.524c0.08-0.902,0.166-1.792,0.258-2.672c0.004-0.045,0.01-0.09,0.014-0.135    c0.934-8.809,2.459-16.476,4.569-22.925c2.938-8.983,6.305-13.313,8.286-15.237l82.629,23.704    c-0.12,0.141-0.236,0.277-0.359,0.413c-0.191,0.212-0.385,0.423-0.586,0.634c-0.235,0.244-0.481,0.487-0.731,0.729    c-0.213,0.207-0.426,0.414-0.649,0.619c-0.264,0.242-0.542,0.482-0.821,0.723c-0.234,0.2-0.463,0.402-0.706,0.601    c-0.298,0.244-0.613,0.486-0.926,0.728c-0.248,0.191-0.488,0.383-0.745,0.571c-0.342,0.252-0.702,0.501-1.06,0.75    c-0.252,0.176-0.495,0.353-0.755,0.526c-0.423,0.283-0.869,0.563-1.313,0.843c-0.215,0.136-0.42,0.273-0.64,0.408    c-0.669,0.408-1.36,0.814-2.073,1.214c-0.228,0.128-0.472,0.253-0.704,0.38c-0.502,0.274-1.003,0.549-1.527,0.819    c-0.315,0.163-0.645,0.322-0.968,0.483c-0.461,0.231-0.919,0.461-1.395,0.688c-0.357,0.17-0.728,0.338-1.093,0.506    c-0.463,0.214-0.925,0.428-1.402,0.639c-0.386,0.17-0.784,0.339-1.179,0.508c-0.477,0.204-0.954,0.407-1.444,0.609    c-0.411,0.168-0.832,0.336-1.251,0.502c-0.494,0.196-0.991,0.392-1.498,0.585c-0.434,0.166-0.876,0.33-1.319,0.494    c-0.512,0.19-1.03,0.378-1.555,0.565c-0.453,0.161-0.911,0.322-1.372,0.48c-0.536,0.184-1.078,0.368-1.625,0.549    c-0.47,0.155-0.942,0.311-1.42,0.465c-0.56,0.18-1.128,0.357-1.698,0.534c-0.484,0.15-0.968,0.299-1.459,0.447    c-0.589,0.177-1.187,0.349-1.786,0.523c-0.493,0.143-0.984,0.285-1.484,0.426c-0.624,0.175-1.259,0.345-1.894,0.517    c-0.494,0.133-0.984,0.267-1.485,0.398c-0.668,0.175-1.35,0.344-2.031,0.516c-0.487,0.122-0.968,0.247-1.461,0.367    c-0.754,0.183-1.522,0.361-2.29,0.54c-0.435,0.101-0.862,0.205-1.301,0.305c-1.206,0.273-2.428,0.542-3.667,0.804    c-0.205,0.043-0.416,0.084-0.622,0.127c-1.05,0.219-2.105,0.436-3.178,0.646c-0.471,0.092-0.953,0.181-1.428,0.271    c-0.82,0.156-1.638,0.314-2.471,0.465c-0.544,0.099-1.097,0.194-1.645,0.29c-0.778,0.137-1.557,0.276-2.346,0.409    c-0.589,0.1-1.187,0.195-1.782,0.292c-0.762,0.124-1.526,0.248-2.297,0.368c-0.621,0.096-1.248,0.19-1.875,0.283    c-0.763,0.115-1.528,0.228-2.299,0.338c-0.645,0.092-1.295,0.181-1.946,0.271c-0.766,0.105-1.535,0.209-2.31,0.31    c-0.667,0.087-1.337,0.173-2.009,0.256c-0.776,0.098-1.557,0.192-2.341,0.285c-0.68,0.08-1.363,0.16-2.049,0.238    c-0.79,0.09-1.586,0.177-2.383,0.262c-0.696,0.075-1.392,0.149-2.093,0.22c-0.803,0.081-1.611,0.16-2.421,0.238    c-0.706,0.068-1.412,0.136-2.123,0.201c-0.823,0.075-1.654,0.146-2.485,0.215c-0.711,0.06-1.418,0.122-2.134,0.179    c-0.174,0.014-0.351,0.026-0.524,0.04C352.852,300.043,352.862,299.729,352.872,299.419z M16.081,301.302V239.21    c17.305,9.733,49.065,31.465,54.222,62.092H16.081z M67.788,260.357c-17.269-20.963-41.385-34.302-51.691-39.379    c0.298-21.906,5.812-24.835,6.456-25.102c3.961-1.633,13.04,4.364,17.875,9.177c19.847,21.721,42.997,29.559,68.806,23.298    c20.544-4.984,38.118-18.051,48.619-25.858c1.408-1.047,2.702-2.01,3.872-2.856c3.326-2.402,7.099-3.64,10.931-4.14    c0.027-0.003,0.055-0.002,0.081-0.006c8.185-1.034,16.56,1.277,21.47,3.044c0.093,0.033,0.188,0.068,0.278,0.101    c0.155,0.057,0.307,0.113,0.455,0.168c0.118,0.044,0.234,0.088,0.346,0.131c0.122,0.047,0.247,0.094,0.362,0.139    c0.21,0.081,0.414,0.162,0.604,0.238c0.087,0.034,0.164,0.066,0.245,0.101c0.119,0.048,0.237,0.096,0.346,0.143    c0.086,0.036,0.168,0.071,0.249,0.104c0.092,0.039,0.181,0.077,0.265,0.113c0.074,0.032,0.15,0.064,0.217,0.093    c0.059,0.026,0.11,0.048,0.165,0.073c0.509,0.225,0.799,0.366,0.815,0.373c0.004,0.002,0.009,0.003,0.013,0.005    c0.083,0.042,0.166,0.081,0.25,0.12l62.135,28.293c4.045,1.84,8.811,0.055,10.651-3.986c1.84-4.043,0.056-8.81-3.986-10.651    l-62.029-28.243c-0.01-0.004-0.027-0.013-0.038-0.018c-0.051-0.025-0.113-0.054-0.182-0.087c-0.083-0.04-0.179-0.085-0.287-0.135    c-0.027-0.012-0.05-0.024-0.078-0.036c-1.899-0.882-7.173-3.154-14.131-4.745c-0.11-0.026-0.222-0.05-0.332-0.075    c-0.489-0.109-0.984-0.214-1.489-0.316c-0.239-0.048-0.478-0.096-0.72-0.143c-0.262-0.05-0.525-0.098-0.79-0.145    c-0.367-0.065-0.738-0.129-1.111-0.189c-0.237-0.039-0.475-0.075-0.715-0.112c-0.437-0.066-0.879-0.128-1.324-0.185    c-0.167-0.021-0.333-0.044-0.502-0.064c-0.566-0.069-1.136-0.131-1.714-0.185c-0.089-0.009-0.178-0.015-0.267-0.023    c-0.582-0.051-1.17-0.095-1.761-0.131c-0.053-0.003-0.104-0.008-0.157-0.01c-0.071-0.004-0.14-0.01-0.211-0.014    c0.525-8.779,2.698-18.701,7.208-21.717c2.594-1.731,6.766-1.217,12.399,1.538c4.161,2.034,9.713,4.868,16.243,8.271l-1.145,1.907    c-2.285,3.808-1.05,8.746,2.757,11.03c1.295,0.777,2.721,1.147,4.13,1.147c2.732,0,5.395-1.393,6.902-3.905l1.609-2.681    c3.336,1.769,6.806,3.617,10.383,5.528l-1.236,2.06c-2.285,3.808-1.05,8.746,2.758,11.031c1.295,0.777,2.721,1.146,4.128,1.146    c2.732,0,5.395-1.393,6.902-3.905l1.634-2.723c3.408,1.834,6.867,3.7,10.35,5.582l-1.229,2.048    c-2.286,3.808-1.052,8.746,2.757,11.03c1.295,0.778,2.721,1.147,4.13,1.147c2.73,0,5.395-1.393,6.902-3.906l1.593-2.654    c3.457,1.876,6.908,3.752,10.33,5.614l-1.169,1.948c-2.286,3.808-1.051,8.746,2.757,11.03c1.295,0.778,2.721,1.147,4.13,1.147    c2.731,0,5.395-1.393,6.902-3.906l1.512-2.519c3.517,1.92,6.966,3.804,10.317,5.637l-1.074,1.789    c-2.286,3.808-1.051,8.746,2.757,11.03c1.295,0.778,2.721,1.147,4.13,1.147c2.731,0,5.395-1.393,6.902-3.905l1.4-2.334    c9.596,5.261,17.79,9.765,23.669,13.002c-1.751,2.372-3.536,5.328-5.235,9.013l-54.332-24.738    c-4.043-1.836-8.809-0.055-10.65,3.987c-1.84,4.042-0.056,8.809,3.987,10.65l29.746,13.543c0.002,0.001,0.005,0.003,0.008,0.004    l26.035,11.854c-0.641,2.599-1.233,5.388-1.76,8.398c-23.224,0.073-47.498-8.51-73.115-17.572    c-41.5-14.681-84.413-29.861-125.381-7.076C94.439,274.757,71.623,262.801,67.788,260.357z M302.151,301.345    c-0.406-0.019-0.812-0.024-1.217-0.029c-0.1-0.005-0.198-0.015-0.3-0.017c-0.204-0.005-0.411-0.003-0.61,0.005H86.564v-0.002    c-0.912-7.246-2.958-14.036-5.8-20.368c15.104,1.688,37.538-1.044,67.872-17.918c34.627-19.263,72.308-5.932,112.202,8.182    c25.137,8.893,51.052,18.036,76.491,18.455c-0.164,2.08-0.299,4.242-0.41,6.472c-0.005,0.101-0.01,0.2-0.015,0.301    c-0.074,1.545-0.135,3.126-0.181,4.745c-0.002,0.079-0.006,0.154-0.009,0.234c-0.925,0.045-1.843,0.08-2.762,0.118    C323.121,301.889,312.384,301.836,302.151,301.345z M491.72,304.945c-18.687,23.134-54.13,38.537-105.44,45.846    c-3.421,0.487-6.911,0.938-10.473,1.354c-1.402,0.163-2.798,0.318-4.186,0.466c-0.45,0.048-0.896,0.092-1.345,0.138    c-0.936,0.098-1.872,0.194-2.8,0.284c-0.523,0.051-1.041,0.099-1.561,0.148c-0.85,0.08-1.699,0.16-2.542,0.235    c-0.539,0.048-1.075,0.093-1.611,0.139c-0.815,0.07-1.626,0.138-2.432,0.203c-0.536,0.043-1.068,0.085-1.6,0.125    c-0.804,0.062-1.604,0.122-2.399,0.18c-0.519,0.038-1.037,0.075-1.552,0.11c-0.795,0.055-1.586,0.107-2.371,0.159    c-0.496,0.032-0.994,0.064-1.487,0.095c-0.818,0.05-1.627,0.098-2.434,0.144c-0.44,0.025-0.882,0.051-1.318,0.075    c-0.881,0.048-1.75,0.092-2.615,0.135c-0.349,0.017-0.705,0.036-1.053,0.054c-1.146,0.055-2.276,0.105-3.39,0.151    c-0.055,0.002-0.111,0.005-0.166,0.008c-1.193,0.049-2.367,0.093-3.521,0.133c-0.236,0.009-0.462,0.015-0.696,0.023    c-0.887,0.03-1.767,0.058-2.629,0.083c-0.377,0.011-0.743,0.019-1.115,0.03c-0.71,0.019-1.417,0.038-2.108,0.053    c-0.401,0.009-0.793,0.017-1.189,0.025c-0.635,0.013-1.266,0.026-1.884,0.036c-0.415,0.008-0.822,0.013-1.229,0.019    c-0.578,0.009-1.149,0.016-1.711,0.022c-0.407,0.004-0.81,0.009-1.209,0.013c-0.236,0.002-0.463,0.003-0.696,0.005    c1.642-28.194,21.117-36.942,25.252-38.488c0.059-0.003,0.12-0.008,0.179-0.012c0.124-0.008,0.253-0.016,0.378-0.025    c0.326-0.02,0.652-0.042,0.986-0.063c0.155-0.011,0.315-0.021,0.473-0.032c0.317-0.021,0.636-0.043,0.962-0.065    c0.164-0.012,0.331-0.024,0.497-0.035c0.325-0.023,0.65-0.046,0.982-0.07c0.178-0.013,0.359-0.027,0.539-0.04    c0.33-0.025,0.661-0.049,0.998-0.074c0.174-0.013,0.349-0.027,0.525-0.041c0.358-0.028,0.717-0.056,1.083-0.085    c0.154-0.013,0.312-0.026,0.467-0.037c0.386-0.031,0.773-0.062,1.165-0.095c0.16-0.014,0.323-0.028,0.485-0.041    c0.391-0.033,0.785-0.066,1.184-0.102c0.175-0.015,0.353-0.031,0.53-0.047c0.389-0.034,0.779-0.07,1.175-0.105    c0.193-0.017,0.388-0.035,0.583-0.054c0.387-0.035,0.774-0.072,1.167-0.109c0.203-0.019,0.406-0.04,0.611-0.059    c0.392-0.038,0.786-0.076,1.185-0.116c0.203-0.02,0.407-0.041,0.611-0.061c0.408-0.041,0.818-0.083,1.232-0.125    c0.198-0.02,0.398-0.042,0.597-0.062c0.417-0.044,0.836-0.088,1.259-0.134c0.21-0.023,0.422-0.046,0.635-0.07    c0.421-0.046,0.844-0.093,1.269-0.14c0.206-0.024,0.412-0.047,0.619-0.071c0.436-0.049,0.874-0.1,1.314-0.152    c0.21-0.025,0.42-0.05,0.631-0.075c0.436-0.051,0.875-0.105,1.315-0.159c0.218-0.027,0.437-0.054,0.656-0.081    c0.443-0.055,0.887-0.11,1.334-0.167c0.219-0.028,0.438-0.056,0.658-0.085c0.445-0.058,0.891-0.116,1.339-0.175    c0.229-0.03,0.46-0.061,0.69-0.092c0.445-0.06,0.891-0.12,1.338-0.182c0.232-0.032,0.463-0.064,0.696-0.096    c0.455-0.063,0.91-0.128,1.367-0.193c0.227-0.032,0.455-0.065,0.682-0.099c0.463-0.068,0.928-0.136,1.395-0.205    c0.226-0.034,0.453-0.069,0.681-0.103c0.463-0.07,0.927-0.14,1.393-0.213c0.238-0.036,0.476-0.074,0.715-0.112    c0.464-0.073,0.929-0.147,1.395-0.222c0.236-0.038,0.472-0.076,0.708-0.115c0.467-0.076,0.935-0.153,1.403-0.233    c0.241-0.041,0.482-0.081,0.724-0.122c0.465-0.079,0.931-0.159,1.397-0.24c0.248-0.043,0.494-0.087,0.742-0.131    c0.467-0.083,0.935-0.166,1.402-0.251c0.243-0.044,0.487-0.089,0.73-0.133c0.47-0.087,0.94-0.174,1.411-0.263    c0.248-0.046,0.494-0.093,0.742-0.14c0.472-0.09,0.943-0.181,1.416-0.274c0.242-0.047,0.486-0.095,0.729-0.144    c0.474-0.094,0.948-0.19,1.423-0.286c0.247-0.05,0.493-0.101,0.741-0.152c0.472-0.098,0.944-0.196,1.416-0.297    c0.245-0.051,0.491-0.104,0.735-0.156c0.475-0.102,0.95-0.206,1.425-0.31c0.242-0.054,0.486-0.107,0.728-0.161    c0.481-0.107,0.962-0.217,1.442-0.327c0.234-0.054,0.469-0.107,0.702-0.162c0.484-0.113,0.966-0.226,1.448-0.341    c0.235-0.056,0.469-0.112,0.703-0.168c0.48-0.116,0.961-0.234,1.441-0.354c0.236-0.059,0.471-0.117,0.706-0.176    c0.476-0.12,0.951-0.241,1.426-0.363c0.237-0.061,0.474-0.122,0.711-0.184c0.475-0.124,0.949-0.251,1.422-0.377    c0.234-0.063,0.469-0.125,0.701-0.19c0.473-0.129,0.945-0.259,1.415-0.391c0.232-0.065,0.464-0.13,0.696-0.195    c0.473-0.134,0.944-0.271,1.415-0.408c0.228-0.066,0.456-0.133,0.683-0.199c0.466-0.138,0.931-0.278,1.395-0.419    c0.23-0.07,0.462-0.139,0.693-0.211c0.462-0.143,0.923-0.287,1.383-0.433c0.226-0.072,0.453-0.143,0.68-0.215    c0.461-0.148,0.92-0.299,1.378-0.45c0.222-0.073,0.444-0.146,0.666-0.22c0.46-0.154,0.917-0.311,1.372-0.468    c0.217-0.075,0.433-0.149,0.649-0.224c0.457-0.16,0.911-0.323,1.365-0.486c0.211-0.076,0.423-0.152,0.634-0.228    c0.451-0.165,0.899-0.332,1.346-0.502c0.21-0.079,0.42-0.158,0.629-0.237c0.445-0.17,0.887-0.343,1.327-0.517    c0.207-0.081,0.414-0.162,0.62-0.243c0.441-0.176,0.878-0.355,1.313-0.535c0.201-0.083,0.402-0.164,0.601-0.248    c0.437-0.183,0.872-0.369,1.304-0.556c0.194-0.084,0.388-0.166,0.581-0.251c0.431-0.189,0.857-0.381,1.282-0.574    c0.191-0.086,0.383-0.172,0.573-0.258c0.424-0.195,0.845-0.393,1.264-0.593c0.184-0.087,0.37-0.174,0.552-0.262    c0.42-0.203,0.835-0.408,1.249-0.615c0.177-0.088,0.355-0.175,0.531-0.264c0.412-0.209,0.818-0.421,1.223-0.634    c0.174-0.091,0.348-0.18,0.521-0.272c0.403-0.214,0.799-0.433,1.195-0.652c0.168-0.093,0.339-0.184,0.506-0.279    c0.397-0.223,0.786-0.449,1.176-0.675c0.161-0.093,0.324-0.185,0.482-0.28c0.392-0.232,0.777-0.469,1.161-0.704    c0.15-0.092,0.302-0.182,0.451-0.276c0.386-0.241,0.764-0.487,1.143-0.733c0.141-0.092,0.285-0.182,0.426-0.274    c0.38-0.251,0.751-0.507,1.122-0.762c0.132-0.091,0.266-0.18,0.397-0.271c0.375-0.263,0.742-0.531,1.107-0.799    c0.12-0.088,0.242-0.174,0.361-0.263c0.372-0.277,0.734-0.559,1.096-0.842c0.106-0.083,0.215-0.164,0.321-0.247    c0.366-0.289,0.721-0.584,1.075-0.88c0.095-0.079,0.194-0.158,0.288-0.237c0.365-0.309,0.72-0.623,1.072-0.939    c0.077-0.069,0.158-0.136,0.234-0.206c0.374-0.339,0.738-0.683,1.096-1.029c0.05-0.048,0.103-0.095,0.152-0.144    c0.27-0.264,0.531-0.532,0.792-0.8c0.042-0.043,0.085-0.086,0.128-0.129c0.078-0.08,0.16-0.16,0.237-0.24    c0.011-0.011,0.021-0.021,0.032-0.032c0.276-0.289,0.54-0.584,0.806-0.879c0.075-0.084,0.153-0.165,0.227-0.249    c0.4-0.451,0.789-0.907,1.163-1.37c0.032-0.04,0.07-0.073,0.102-0.113c0.418-0.51,0.86-0.992,1.322-1.449    c0.119-0.118,0.247-0.225,0.368-0.339c0.101-0.095,0.208-0.182,0.31-0.274c0.311-0.279,0.622-0.559,0.951-0.815    c0.112-0.088,0.226-0.17,0.339-0.256c0.125-0.094,0.257-0.179,0.385-0.27c0.406-0.287,0.817-0.571,1.247-0.827    c0.018-0.011,0.035-0.021,0.054-0.032c0.152-0.09,0.311-0.169,0.466-0.255c0.507-0.28,1.025-0.545,1.563-0.779    c0.303-0.133,0.608-0.261,0.918-0.377c0.235-0.088,0.468-0.18,0.706-0.258c0.393-0.13,0.794-0.237,1.196-0.342    c0.247-0.063,0.489-0.136,0.739-0.191c0.449-0.098,0.906-0.165,1.364-0.229c0.205-0.029,0.405-0.073,0.611-0.095    c0.665-0.072,1.338-0.11,2.017-0.113c0.569-0.002,1.135,0.02,1.698,0.069c0.159,0.014,0.313,0.042,0.471,0.06    c0.429,0.048,0.857,0.102,1.28,0.179c0.173,0.031,0.341,0.074,0.512,0.11c0.408,0.087,0.815,0.18,1.216,0.295    c0.163,0.046,0.324,0.099,0.486,0.149c0.404,0.127,0.805,0.265,1.201,0.419c0.153,0.06,0.307,0.121,0.459,0.185    c0.396,0.166,0.785,0.348,1.169,0.542c0.146,0.074,0.293,0.144,0.437,0.222c0.389,0.209,0.77,0.438,1.146,0.675    c0.129,0.081,0.259,0.154,0.386,0.239c0.492,0.327,0.972,0.674,1.438,1.05c3.924,3.169,6.379,7.676,6.913,12.692    C496.342,296.097,494.889,301.021,491.72,304.945z" data-original="#000000" class="active-path" data-old_color="#000000" fill="#3A3A3A"/>
	</g>
</g></g> </svg>
