<svg width="472" height="512" viewBox="0 0 472 512" fill="none" xmlns="http://www.w3.org/2000/svg">
<path d="M470.165 204.9L401.113 65.5898C399.657 62.6525 397.426 60.1669 394.663 58.4023L311.817 5.5197C302.002 -0.74615 289.323 -0.87421 279.518 5.193C253.162 21.4979 224.929 21.0059 193.207 3.68452C183.572 -1.57703 171.777 -1.17974 162.426 4.7221L148.136 13.7397C148.119 13.7498 148.104 13.7609 148.087 13.771L77.4031 58.3781C74.6029 60.1458 72.3452 62.6485 70.8751 65.615L1.83472 204.9C-1.10561 210.831 1.0946 218.049 6.84115 221.334L82.1988 264.395V499.905C82.1988 506.574 87.6247 512 94.2939 512H377.706C384.375 512 389.801 506.574 389.801 499.905V419.169C389.801 414.992 386.415 411.606 382.239 411.606C378.062 411.606 374.676 414.992 374.676 419.169V496.875H97.3239V170.155C97.3239 165.979 93.9379 162.593 89.7613 162.593C85.5848 162.593 82.1988 165.979 82.1988 170.155V246.975L16.4759 209.419L84.4272 72.3316C84.6632 71.8546 85.0262 71.4523 85.4759 71.169L146.915 32.3951C150.379 44.9097 156.475 56.6266 164.875 66.7474C166.37 68.5503 168.526 69.48 170.698 69.48C172.4 69.48 174.112 68.9093 175.524 67.7366C178.739 65.0685 179.181 60.301 176.514 57.0874C168.493 47.4215 162.976 36.0272 160.393 23.8897L170.496 17.513C170.811 17.3143 171.133 17.1298 171.457 16.9563C173.441 31.1347 179.995 44.2159 190.378 54.3871C202.635 66.3955 218.839 73.0092 236.001 73.0092C253.022 73.0092 269.13 66.4882 281.355 54.6483C291.928 44.4075 298.613 31.1417 300.581 16.7547C301.654 17.1389 302.695 17.64 303.68 18.2682L311.701 23.3886C304.4 58.8904 272.679 85.1083 236.001 85.1083C222.577 85.1083 209.33 81.5791 197.691 74.9039C194.067 72.8257 189.445 74.078 187.368 77.701C185.29 81.324 186.543 85.9463 190.165 88.0234C204.092 96.0105 219.942 100.232 236.001 100.232C277.914 100.232 314.413 71.5925 325.187 31.9958L386.524 71.1488C386.968 71.4332 387.327 71.8325 387.561 72.3044L455.524 209.417L389.801 246.973V170.153C389.801 165.977 386.415 162.591 382.239 162.591C378.062 162.591 374.676 165.977 374.676 170.153V388.918C374.676 393.095 378.062 396.481 382.239 396.481C386.415 396.481 389.801 393.095 389.801 388.918V264.395L465.159 221.334C470.905 218.049 473.106 210.831 470.165 204.9V204.9ZM236 57.884C222.819 57.884 210.375 52.805 200.962 43.5827C193.627 36.3962 188.781 27.3211 186.864 17.4393C221.829 36.2389 254.707 37.0143 284.653 19.7384C279.339 41.7888 259.628 57.884 236 57.884V57.884Z" fill="url(#paint0_linear)"/>
<defs>
<linearGradient id="paint0_linear" x1="236" y1="-0.000244141" x2="236" y2="512" gradientUnits="userSpaceOnUse">
<stop stop-color="#3901F8"/>
<stop offset="1" stop-color="#E05D96"/>
</linearGradient>
</defs>
</svg>
