<svg width="512" height="442" viewBox="0 0 512 442" fill="none" xmlns="http://www.w3.org/2000/svg">
<path d="M256.499 166.322L364.572 274.395L336.343 302.624L276.46 242.741V441.071H236.538V242.741L176.655 302.624L148.426 274.395L256.499 166.322ZM416.127 158.178C413.766 71.07 342.171 0.930054 254.503 0.930054C214.229 0.930054 175.641 15.8301 145.846 42.8831C120.173 66.1931 102.825 96.8401 96.032 130.413C71.762 135.632 49.609 148.186 32.469 166.663C11.531 189.239 0 218.638 0 249.444C0 316.584 54.622 371.206 121.762 371.206C121.921 371.206 122.078 371.204 122.193 371.202H142.721V331.28H122.028L121.648 331.284C76.574 331.222 39.922 294.533 39.922 249.444C39.922 207.079 72.953 171.248 115.121 167.873L131.689 166.547L133.386 150.014C139.772 87.7811 191.841 40.8511 254.503 40.8511C321.643 40.8511 376.265 95.4731 376.265 162.613V197.545H405.208C442.08 197.545 472.077 227.542 472.077 264.414C472.077 301.286 442.08 331.283 405.208 331.283L370.276 331.276V371.2H404.558C404.775 371.204 404.991 371.207 405.208 371.207C464.094 371.207 512 323.3 512 264.415C512 209.214 469.905 163.662 416.127 158.178Z" fill="url(#paint0_linear)"/>
<defs>
<linearGradient id="paint0_linear" x1="256.013" y1="0.906338" x2="256.013" y2="441.068" gradientUnits="userSpaceOnUse">
<stop stop-color="#6A1CDB"/>
<stop offset="1" stop-color="#E494BB"/>
</linearGradient>
</defs>
</svg>
