<?xml version="1.0"?>
<svg xmlns="http://www.w3.org/2000/svg" id="Capa_1" enable-background="new 0 0 512.006 512.006" height="512px" viewBox="0 0 512.006 512.006" width="512px"><g><g><path d="m154.762 276.195c2.723 1.573 6.112 1.574 8.837 0l28.635-16.532c2.726-1.573 4.418-4.506 4.418-7.653v-33.064c0-3.147-1.693-6.08-4.418-7.653l-28.635-16.532c-2.726-1.574-6.112-1.573-8.837 0l-28.631 16.53c-2.728 1.573-4.422 4.506-4.422 7.655v33.064c0 3.149 1.694 6.083 4.419 7.653zm-18.053-53.692 22.472-12.974 22.472 12.974v25.949l-22.472 12.974-22.472-12.974z" data-original="#000000" class="active-path" data-old_color="#000000" fill="#3A3A3A"/><path d="m10.007 172.445.702.405c-12.75 7.745-13.048 26.833.729 34.422 4.698 2.589 10.104 3.259 15.218 1.888l32.063-8.591 9.18 5.3v59.216l-9.18 5.299-32.021-8.58c-10.678-2.86-21.803 3.273-24.796 13.674-2.623 9.11 1.514 18.199 8.805 22.626-10.484 6.053-13.203 18.362-8.204 27.4 5.422 9.802 17.8 13.247 27.504 7.645l.702-.405c.189 8.546 5.956 16.469 14.827 18.846 10.729 2.874 21.756-3.922 24.592-14.502l8.591-32.063 9.18-5.301 51.283 29.608v10.6l-23.44 23.441c-7.818 7.818-8.067 20.519-.557 28.312 6.586 6.835 16.536 7.779 23.997 3.687 0 12.11 9.304 20.616 19.628 20.805 11.146.216 20.372-8.754 20.372-19.997v-.811c7.484 4.102 17.227 3.09 23.734-3.417 7.841-7.841 7.495-20.79-.263-28.548l-23.471-23.471v-10.601l51.282-29.607 9.18 5.3 8.58 32.021c2.862 10.678 13.734 17.247 24.241 14.637 9.2-2.284 15.003-10.411 15.19-18.938 10.415 6.004 22.462 2.322 27.832-6.596 5.777-9.595 2.572-22.038-7.131-27.641l-.802-.463c7.283-4.526 11.222-13.308 9.101-21.846-2.7-10.869-13.764-17.402-24.588-14.502l-32.423 8.688-9.18-5.299v-19.865c0-4.142-3.358-7.5-7.5-7.5s-7.5 3.358-7.5 7.5v21.595c0 4.274 2.3 8.258 6.002 10.395l11.753 6.785c2.776 1.603 6.011 2.028 9.107 1.199l33.622-9.009c2.701-.723 5.47.899 6.148 3.629.641 2.58-1.173 5.391-3.961 6.138l-10.874 2.914c-2.93.785-5.099 3.258-5.495 6.266s1.059 5.958 3.686 7.474l15.403 8.893c2.408 1.39 3.237 4.495 1.781 6.914-1.371 2.278-4.641 2.983-7.14 1.539l-15.043-8.686c-2.627-1.518-5.909-1.302-8.316.545-2.406 1.847-3.464 4.961-2.679 7.892l3.022 11.276c.714 2.664-.869 5.462-3.629 6.147-2.581.645-5.392-1.174-6.138-3.962l-8.902-33.222c-.831-3.097-2.817-5.685-5.592-7.286l-11.754-6.787c-3.701-2.136-8.3-2.136-12.002.001l-54.28 31.338c-3.701 2.138-6 6.121-6 10.395v13.571c0 3.207 1.249 6.221 3.516 8.488l24.349 24.349c1.949 1.949 2.177 5.422.263 7.335-1.954 1.954-5.116 1.954-7.071 0l-8.254-8.254c-2.145-2.145-5.372-2.785-8.173-1.626-2.803 1.161-4.63 3.896-4.63 6.929v17.785c0 2.788-2.274 5.045-5.097 5-2.658-.049-4.903-2.528-4.903-5.414v-17.371c0-3.033-1.827-5.768-4.63-6.929-2.801-1.159-6.028-.519-8.173 1.626l-8.254 8.254c-1.943 1.944-5.16 1.984-7.139-.069-1.845-1.914-1.679-5.255.362-7.296l24.318-24.318c2.268-2.267 3.516-5.282 3.516-8.488v-13.571c0-4.274-2.3-8.258-6.002-10.396l-54.28-31.339c-3.701-2.136-8.3-2.136-12.002.001l-11.751 6.785c-2.778 1.603-4.764 4.192-5.594 7.289l-8.913 33.261c-.357 1.335-1.274 2.531-2.515 3.281-3.993 2.413-8.344-1.389-7.241-5.509l3.021-11.275c.785-2.93-.272-6.044-2.679-7.891-2.406-1.847-5.689-2.063-8.315-.545l-15.402 8.893c-2.399 1.385-5.506.565-6.878-1.915-1.287-2.326-.262-5.51 2.237-6.953l15.043-8.686c2.627-1.517 4.082-4.467 3.686-7.474s-2.565-5.48-5.495-6.266l-11.275-3.021c-2.692-.721-4.289-3.509-3.509-6.217.735-2.555 3.71-4.083 6.5-3.334l33.22 8.901c3.097.829 6.333.403 9.108-1.2l11.754-6.786c3.701-2.138 6-6.121 6-10.395v-62.676c0-4.274-2.3-8.258-6.002-10.396l-11.751-6.785c-2.777-1.603-6.011-2.029-9.11-1.2l-33.262 8.912c-2.661.715-5.784-.826-6.484-3.439-.717-2.675.871-5.409 3.535-6.124l11.275-3.021c2.93-.785 5.099-3.258 5.495-6.266s-1.059-5.958-3.686-7.474l-15.403-8.893c-2.403-1.387-3.24-4.491-1.781-6.914 1.371-2.277 4.64-2.982 7.14-1.539l15.043 8.685c2.627 1.516 5.909 1.301 8.316-.545 2.407-1.847 3.464-4.961 2.678-7.892l-3.021-11.275c-.722-2.694.895-5.468 3.629-6.147 2.58-.643 5.391 1.173 6.138 3.962l8.901 33.218c.83 3.098 2.816 5.687 5.593 7.29l11.754 6.787c3.701 2.136 8.301 2.136 12.002-.001l54.279-31.337c3.702-2.138 6.001-6.121 6.001-10.396v-13.568c0-3.207-1.249-6.221-3.516-8.488l-24.612-24.613c-1.963-1.964-1.968-5.176.069-7.139 1.913-1.845 5.254-1.68 7.296.362l7.96 7.96c2.146 2.146 5.372 2.787 8.173 1.626 2.803-1.161 4.63-3.896 4.63-6.929v-17.786c0-2.816 2.315-5.058 5.097-5 2.658.049 4.903 2.528 4.903 5.414v17.371c0 3.034 1.827 5.769 4.63 6.929 2.803 1.161 6.029.519 8.173-1.626l8.254-8.255c1.949-1.948 5.164-1.979 7.138.07 1.845 1.914 1.679 5.255-.362 7.296l-24.318 24.318c-2.267 2.267-3.516 5.282-3.516 8.488v13.571c0 4.275 2.3 8.258 6.001 10.395l54.278 31.338c3.703 2.137 8.303 2.138 12.004 0l11.754-6.786c2.775-1.603 4.76-4.19 5.592-7.288l9.009-33.621c.722-2.695 3.511-4.288 6.216-3.51 2.555.735 4.083 3.711 3.336 6.499l-2.914 10.874c-.786 2.93.271 6.045 2.678 7.892 2.407 1.846 5.688 2.061 8.316.545l15.403-8.893c2.406-1.391 5.512-.556 6.878 1.915 1.287 2.326.262 5.51-2.237 6.953l-15.043 8.686c-2.627 1.517-4.082 4.467-3.686 7.474.396 3.008 2.565 5.48 5.495 6.266l11.276 3.021c2.692.721 4.289 3.509 3.509 6.216-.735 2.554-3.711 4.083-6.5 3.334l-33.217-8.899c-3.097-.832-6.333-.406-9.111 1.198l-11.751 6.785c-3.703 2.137-6.003 6.121-6.003 10.396v6.082c0 4.142 3.358 7.5 7.5 7.5s7.5-3.358 7.5-7.5v-4.351l9.179-5.3 32.021 8.58c10.678 2.859 21.803-3.273 24.796-13.674 2.623-9.11-1.515-18.199-8.806-22.625 10.498-6.061 13.197-18.374 8.204-27.4-5.421-9.8-17.799-13.247-27.504-7.645l-.802.463c-.279-8.569-5.915-16.372-14.369-18.805-10.764-3.097-21.953 3.221-24.853 14.043l-8.688 32.422-9.18 5.3-51.282-29.607v-10.602l23.441-23.44c7.817-7.818 8.066-20.519.556-28.312-6.593-6.842-16.54-7.776-23.997-3.687 0-12.107-9.301-20.615-19.628-20.805-11.247-.2-20.372 8.842-20.372 19.997v.926c-7.561-4.044-17.137-3.065-23.47 3.042-8.064 7.773-8.189 20.621-.265 28.544l23.735 23.735v10.6l-51.282 29.607-9.18-5.3-8.58-32.02c-2.861-10.679-13.74-17.25-24.241-14.638-9.201 2.284-15.003 10.411-15.19 18.938-10.484-6.053-22.503-2.253-27.832 6.596-5.774 9.595-2.57 22.04 7.134 27.642z" data-original="#000000" class="active-path" data-old_color="#000000" fill="#3A3A3A"/><path d="m117.945 200.069c3.587-2.071 4.816-6.658 2.745-10.245-2.071-3.588-6.658-4.816-10.245-2.745l-11.864 6.849c-3.505 2.024-5.682 5.796-5.682 9.843v63.412c0 4.047 2.177 7.819 5.683 9.844l54.915 31.705c3.505 2.025 7.861 2.026 11.368 0l54.917-31.706c3.505-2.024 5.683-5.796 5.683-9.843v-63.412c0-4.047-2.177-7.819-5.684-9.844l-54.915-31.705c-3.506-2.025-7.862-2.025-11.368 0l-13.432 7.754c-3.587 2.071-4.816 6.658-2.745 10.245 2.072 3.587 6.659 4.817 10.245 2.745l11.615-6.706 51.283 29.607v59.216l-51.283 29.607-51.282-29.607v-59.216z" data-original="#000000" class="active-path" data-old_color="#000000" fill="#3A3A3A"/><path d="m438.585 157.983 15.717-9.074 16.41 9.475c3.572 2.063 8.166.857 10.245-2.745 2.071-3.587.842-8.174-2.745-10.245l-8.91-5.145 8.808-5.085c3.587-2.071 4.816-6.658 2.745-10.245s-6.658-4.817-10.245-2.745l-8.808 5.085v-10.289c0-4.142-3.358-7.5-7.5-7.5s-7.5 3.358-7.5 7.5v18.949l-15.697 9.063-12.68-7.321v-18.148l16.411-9.475c3.587-2.071 4.816-6.658 2.745-10.245-2.071-3.588-6.658-4.817-10.245-2.745l-8.911 5.145v-10.171c0-4.142-3.358-7.5-7.5-7.5s-7.5 3.358-7.5 7.5v10.171l-8.911-5.145c-3.587-2.072-8.174-.841-10.245 2.745-2.071 3.587-.842 8.174 2.745 10.245l16.411 9.475v18.148l-12.68 7.321-15.697-9.062v-18.95c0-4.142-3.358-7.5-7.5-7.5s-7.5 3.358-7.5 7.5v10.289l-8.809-5.086c-3.587-2.073-8.174-.842-10.245 2.745s-.842 8.174 2.745 10.245l8.809 5.086-8.911 5.144c-3.587 2.071-4.816 6.658-2.745 10.245 2.077 3.598 6.668 4.811 10.245 2.745l16.411-9.475 15.716 9.074v14.622l-15.716 9.074-16.411-9.475c-3.588-2.073-8.175-.842-10.245 2.745-2.071 3.587-.842 8.174 2.745 10.245l8.911 5.144-8.809 5.086c-3.587 2.071-4.816 6.658-2.745 10.245 2.077 3.598 6.668 4.811 10.245 2.745l8.809-5.086v10.289c0 4.142 3.358 7.5 7.5 7.5s7.5-3.358 7.5-7.5v-18.949l15.738-9.086 12.639 7.297v18.148l-16.411 9.475c-3.587 2.071-4.816 6.658-2.745 10.245 2.072 3.587 6.659 4.817 10.245 2.745l8.911-5.145v10.171c0 4.142 3.358 7.5 7.5 7.5s7.5-3.358 7.5-7.5v-10.171l8.911 5.145c3.573 2.063 8.165.856 10.245-2.745 2.071-3.587.842-8.174-2.745-10.245l-16.411-9.475v-18.146l12.639-7.297 15.738 9.086v18.949c0 4.142 3.358 7.5 7.5 7.5s7.5-3.358 7.5-7.5v-10.289l8.808 5.085c3.573 2.063 8.165.856 10.245-2.745 2.071-3.587.842-8.174-2.745-10.245l-8.808-5.085 8.91-5.145c3.587-2.071 4.816-6.658 2.745-10.245-2.071-3.588-6.658-4.817-10.245-2.745l-16.41 9.475-15.717-9.074zm-27.661 21.907-12.661-7.309v-14.62l12.661-7.31 12.661 7.31v14.62z" data-original="#000000" class="active-path" data-old_color="#000000" fill="#3A3A3A"/><path d="m458.041 348.485 21.383-12.345 21.331 12.315c3.572 2.063 8.166.857 10.245-2.745 2.071-3.587.842-8.174-2.745-10.245l-13.831-7.985 13.704-7.912c3.587-2.071 4.816-6.658 2.745-10.245-2.071-3.588-6.658-4.817-10.245-2.745l-13.704 7.912v-15.97c0-4.142-3.358-7.5-7.5-7.5s-7.5 3.358-7.5 7.5v24.631l-21.358 12.331-17.606-10.164v-24.691l21.331-12.315c3.587-2.071 4.816-6.658 2.745-10.245s-6.659-4.817-10.245-2.745l-13.831 7.985v-15.824c0-4.142-3.358-7.5-7.5-7.5s-7.5 3.358-7.5 7.5v15.824l-13.831-7.985c-3.587-2.072-8.174-.842-10.245 2.745s-.842 8.174 2.745 10.245l21.331 12.315v24.691l-17.606 10.164-21.358-12.331v-24.631c0-4.142-3.358-7.5-7.5-7.5s-7.5 3.358-7.5 7.5v15.971l-13.704-7.912c-3.588-2.073-8.174-.842-10.245 2.745s-.842 8.174 2.745 10.245l13.704 7.912-13.831 7.985c-3.587 2.071-4.816 6.658-2.745 10.245 2.077 3.599 6.668 4.811 10.245 2.745l21.331-12.315 21.382 12.345v20.304l-21.382 12.345-21.331-12.315c-3.588-2.072-8.174-.842-10.245 2.745s-.842 8.174 2.745 10.245l13.831 7.985-13.704 7.912c-3.587 2.071-4.816 6.658-2.745 10.245 2.077 3.599 6.668 4.811 10.245 2.745l13.704-7.912v15.971c0 4.142 3.358 7.5 7.5 7.5s7.5-3.358 7.5-7.5v-24.631l21.409-12.361 17.554 10.135v24.691l-21.331 12.315c-3.587 2.071-4.816 6.658-2.745 10.245 2.071 3.588 6.658 4.817 10.245 2.745l13.831-7.985v15.824c0 4.142 3.358 7.5 7.5 7.5s7.5-3.358 7.5-7.5v-15.824l13.831 7.985c3.573 2.063 8.165.856 10.245-2.745 2.071-3.587.842-8.174-2.745-10.245l-21.331-12.315v-24.691l17.554-10.135 21.409 12.361v24.631c0 4.142 3.358 7.5 7.5 7.5s7.5-3.358 7.5-7.5v-15.97l13.704 7.912c3.573 2.063 8.165.856 10.245-2.745 2.071-3.587.842-8.174-2.745-10.245l-13.704-7.912 13.831-7.985c3.587-2.071 4.816-6.658 2.745-10.245-2.072-3.587-6.659-4.816-10.245-2.745l-21.331 12.315-21.383-12.345v-20.306zm-32.581 30.423-17.581-10.15v-20.301l17.581-10.15 17.581 10.15v20.301z" data-original="#000000" class="active-path" data-old_color="#000000" fill="#3A3A3A"/></g></g> </svg>
